<?xml version="1.0" encoding="UTF-8"?>
<svg width="136px" height="29px" viewBox="0 0 136 29" version="1.1" xmlns="http://www.w3.org/2000/svg" xmlns:xlink="http://www.w3.org/1999/xlink">
    <title>8B9AEC7F-49AF-4A9A-9E5D-2F420A4A9E7A</title>
    <g id="Pages" stroke="none" stroke-width="1" fill="none" fill-rule="evenodd">
        <g id="M---AM-Building" transform="translate(-15.000000, -18.000000)">
            <g id="Navigation-/-Mobile" transform="translate(15.000000, 18.000000)">
                <g id="AM_Logo_fullcolor-Copy">
                    <path d="M56.9928224,7.21473144 L55.0202287,2.24697816 L52.9858053,7.21473144 L56.9928224,7.21473144 Z M54.4345219,0.672077922 L55.6057494,0.672077922 L60.075,11.4253247 L58.5955547,11.4253247 L57.3010402,8.27497514 L52.7085024,8.27497514 L51.429259,11.4253247 L49.95,11.4253247 L54.4345219,0.672077922 Z" id="Fill-1" fill="#000033"></path>
                    <path d="M69.5193219,6.03332749 C69.5193219,5.42770926 69.4374051,4.86985965 69.2735715,4.35996168 C69.1097379,3.85024673 68.8661479,3.41355736 68.5435217,3.04989359 C68.2207155,2.68641284 67.8258945,2.40108228 67.3590588,2.19408493 C66.892043,1.98727061 66.360934,1.8834974 65.7648318,1.8834974 L63.440735,1.8834974 L63.440735,10.2135392 L65.7648318,10.2135392 C66.370656,10.2135392 66.9095066,10.1077527 67.3813834,9.89544774 C67.8530801,9.68332579 68.2455606,9.39067437 68.5584648,9.01712743 C68.871189,8.6435805 69.1097379,8.20176653 69.2735715,7.69205158 C69.4374051,7.18215361 69.5193219,6.62924558 69.5193219,6.03332749 L69.5193219,6.03332749 Z M62.1,11.4253247 L62.1,0.672077922 L65.7648318,0.672077922 C66.6090249,0.672077922 67.3516773,0.813553562 67.9922487,1.09595578 C68.6328201,1.37872403 69.1666296,1.76233715 69.5938572,2.24716118 C70.0207248,2.73180218 70.3410105,3.29971797 70.5547143,3.95109159 C70.7682381,4.6024652 70.875,5.29666585 70.875,6.03332749 C70.875,6.85125069 70.7559956,7.59120672 70.5174467,8.25209745 C70.2790778,8.91372027 69.9364675,9.47889074 69.4894358,9.948707 C69.0425841,10.4179742 68.5037336,10.7814549 67.8730642,11.0389662 C67.2422148,11.2966605 66.5397107,11.4253247 65.7648318,11.4253247 L62.1,11.4253247 Z" id="Fill-2" fill="#000033"></path>
                    <polygon id="Fill-4" fill="#000033" points="73.0095314 0.672077922 76.6202052 9.71370736 80.2154686 0.672077922 81.675 0.672077922 77.2193539 11.4253247 76.0208708 11.4253247 71.55 0.672077922"></polygon>
                    <path d="M88.0428224,7.21473144 L86.0702287,2.24697816 L84.0358053,7.21473144 L88.0428224,7.21473144 Z M85.4845219,0.672077922 L86.6557494,0.672077922 L91.125,11.4253247 L89.6455547,11.4253247 L88.3510402,8.27497514 L83.7585024,8.27497514 L82.479259,11.4253247 L81,11.4253247 L85.4845219,0.672077922 Z" id="Fill-6" fill="#000033"></path>
                    <polygon id="Fill-8" fill="#000033" points="93.8925381 3.21644318 93.8925381 11.4253247 92.475 11.4253247 92.475 0.672077922 93.5775508 0.672077922 100.507462 9.04732598 100.507462 0.687085687 101.925 0.687085687 101.925 11.4253247 100.728048 11.4253247"></polygon>
                    <path d="M104.625,5.95918416 C104.625,5.32227691 104.740312,4.68735491 104.97075,4.05495962 C105.201188,3.42292528 105.539139,2.8555021 105.984788,2.3525096 C106.430438,1.84969759 106.975987,1.4439828 107.621251,1.13518475 C108.2667,0.826928141 108.999051,0.672077922 109.818675,0.672077922 C110.791676,0.672077922 111.626527,0.886485917 112.323226,1.31439952 C113.019739,1.74267407 113.537249,2.30035143 113.8752,2.98725112 L112.784287,3.67433128 C112.620325,3.33593483 112.423125,3.05222324 112.192687,2.82265508 C111.962249,2.59398932 111.711015,2.40990164 111.439725,2.27039206 C111.16825,2.13106296 110.888977,2.03125857 110.602275,1.97133984 C110.315388,1.91178206 110.033701,1.88182269 109.757212,1.88182269 C109.152614,1.88182269 108.617463,2.0038259 108.151388,2.2478323 C107.685127,2.49201918 107.293327,2.81038257 106.975987,3.20364437 C106.658276,3.59708665 106.420039,4.04016041 106.261463,4.53304613 C106.102514,5.02575137 106.023226,5.5209833 106.023226,6.01874193 C106.023226,6.57678025 106.117926,7.10684446 106.307513,7.60965647 C106.496914,8.11228801 106.760776,8.55770798 107.098912,8.94627736 C107.437049,9.33430529 107.836463,9.64310334 108.297338,9.87231054 C108.7584,10.1013373 109.260127,10.2155799 109.803263,10.2155799 C110.089964,10.2155799 110.38465,10.1807476 110.686949,10.1112636 C110.988876,10.0414185 111.278363,9.92934162 111.555037,9.77503284 C111.831711,9.62090453 112.090188,9.42671008 112.331025,9.19262998 C112.57149,8.95854987 112.768875,8.67736497 112.922624,8.34871433 L114.075,8.96107656 C113.90064,9.35939175 113.657575,9.71042167 113.345063,10.0139859 C113.032551,10.3177305 112.679188,10.5740094 112.284788,10.7831836 C111.890388,10.9921772 111.472778,11.1515394 111.032513,11.2610896 C110.592063,11.3702789 110.161639,11.4253247 109.7418,11.4253247 C108.993852,11.4253247 108.307551,11.2659625 107.682713,10.9474186 C107.057876,10.6290553 106.51734,10.2130532 106.061663,9.7003149 C105.605801,9.18775707 105.252252,8.60535421 105.001388,7.95292584 C104.750339,7.30121938 104.625,6.63633803 104.625,5.95918416" id="Fill-10" fill="#000033"></path>
                    <polygon id="Fill-12" fill="#000033" points="123.525 10.2135392 123.525 11.4253247 116.1 11.4253247 116.1 0.672077922 123.386318 0.672077922 123.386318 1.8834974 117.486452 1.8834974 117.486452 5.36712913 122.616211 5.36712913 122.616211 6.50314375 117.486452 6.50314375 117.486452 10.2135392"></polygon>
                    <path d="M133.644322,6.03332749 C133.644322,5.42770926 133.562405,4.86985965 133.398572,4.35996168 C133.234738,3.85024673 132.991148,3.41355736 132.668522,3.04989359 C132.345716,2.68641284 131.950895,2.40108228 131.484059,2.19408493 C131.017043,1.98727061 130.485934,1.8834974 129.889832,1.8834974 L127.565735,1.8834974 L127.565735,10.2135392 L129.889832,10.2135392 C130.495656,10.2135392 131.034507,10.1077527 131.506383,9.89544774 C131.97808,9.68332579 132.370561,9.39067437 132.683465,9.01712743 C132.996189,8.6435805 133.234738,8.20176653 133.398572,7.69205158 C133.562405,7.18215361 133.644322,6.62924558 133.644322,6.03332749 L133.644322,6.03332749 Z M126.225,11.4253247 L126.225,0.672077922 L129.889832,0.672077922 C130.734025,0.672077922 131.476677,0.813553562 132.117249,1.09595578 C132.75782,1.37872403 133.29163,1.76233715 133.718857,2.24716118 C134.145725,2.73180218 134.46601,3.29971797 134.679714,3.95109159 C134.893238,4.6024652 135,5.29666585 135,6.03332749 C135,6.85125069 134.880996,7.59120672 134.642447,8.25209745 C134.404078,8.91372027 134.061467,9.47889074 133.614436,9.948707 C133.167584,10.4179742 132.628734,10.7814549 131.998064,11.0389662 C131.367215,11.2966605 130.664711,11.4253247 129.889832,11.4253247 L126.225,11.4253247 Z" id="Fill-14" fill="#000033"></path>
                    <polygon id="Fill-16" fill="#000033" points="60.0442729 26.8831169 60.0442729 18.5680829 56.4239426 24.9445529 55.6414441 24.9445529 52.0057271 18.5680829 52.0057271 26.8831169 50.625 26.8831169 50.625 16.1298701 52.0824754 16.1298701 56.025 23.1119583 59.9829114 16.1298701 61.425 16.1298701 61.425 26.8831169"></polygon>
                    <path d="M70.4928224,22.6725237 L68.5202287,17.7047704 L66.4858053,22.6725237 L70.4928224,22.6725237 Z M67.9345219,16.1298701 L69.1057494,16.1298701 L73.575,26.8831169 L72.0955547,26.8831169 L70.8010402,23.7327674 L66.2085024,23.7327674 L64.929259,26.8831169 L63.45,26.8831169 L67.9345219,16.1298701 Z" id="Fill-18" fill="#000033"></path>
                    <polygon id="Fill-20" fill="#000033" points="77.0175381 18.6742354 77.0175381 26.8831169 75.6 26.8831169 75.6 16.1298701 76.7025508 16.1298701 83.6324619 24.5051182 83.6324619 16.1448779 85.05 16.1448779 85.05 26.8831169 83.8530482 26.8831169"></polygon>
                    <polygon id="Fill-22" fill="#000033" points="87.75 26.8831169 87.75 16.1448779 89.1380177 16.1448779 89.1380177 22.0820962 94.7823371 16.1298701 96.2782579 16.1298701 91.8831171 20.8701277 96.525 26.8831169 95.0136113 26.8831169 91.0348012 21.6576693 89.1380177 23.5965993 89.1380177 26.8831169"></polygon>
                    <polygon id="Fill-24" fill="#000033" points="97.875 26.8831169 99.225 26.8831169 99.225 16.1298701 97.875 16.1298701"></polygon>
                    <polygon id="Fill-26" fill="#000033" points="103.342538 18.6742354 103.342538 26.8831169 101.925 26.8831169 101.925 16.1298701 103.027551 16.1298701 109.957462 24.5051182 109.957462 16.1448779 111.375 16.1448779 111.375 26.8831169 110.178048 26.8831169"></polygon>
                    <path d="M121.494322,21.4911197 C121.494322,20.8855015 121.412405,20.3276519 121.248572,19.8177539 C121.084738,19.3080389 120.841148,18.8713496 120.518522,18.5076858 C120.195716,18.144205 119.800895,17.8588745 119.334059,17.6518771 C118.867043,17.4450628 118.335934,17.3412896 117.739832,17.3412896 L115.415735,17.3412896 L115.415735,25.6713314 L117.739832,25.6713314 C118.345656,25.6713314 118.884507,25.5655449 119.356383,25.3532399 C119.82808,25.141118 120.220561,24.8484666 120.533465,24.4749196 C120.846189,24.1013727 121.084738,23.6595587 121.248572,23.1498438 C121.412405,22.6399458 121.494322,22.0870378 121.494322,21.4911197 L121.494322,21.4911197 Z M114.075,26.8831169 L114.075,16.1298701 L117.739832,16.1298701 C118.584025,16.1298701 119.326677,16.2713458 119.967249,16.553748 C120.60782,16.8365162 121.14163,17.2201294 121.568857,17.7049534 C121.995725,18.1895944 122.31601,18.7575102 122.529714,19.4088838 C122.743238,20.0602574 122.85,20.7544581 122.85,21.4911197 C122.85,22.3090429 122.730996,23.0489989 122.492447,23.7098897 C122.254078,24.3715125 121.911467,24.936683 121.464436,25.4064992 C121.017584,25.8757664 120.478734,26.2392472 119.848064,26.4967584 C119.217215,26.7544528 118.514711,26.8831169 117.739832,26.8831169 L114.075,26.8831169 Z" id="Fill-27" fill="#000033"></path>
                    <path d="M0,25.9009119 C3.41225924,27.8994983 7.79197535,26.7529448 9.80152525,23.3251783 C11.8110752,19.8974119 10.6913455,15.4831902 7.30421506,13.4415584 L0,25.9009119 Z" id="Fill-28" fill="#3333FF"></path>
                    <path d="M15.4033673,0 L15.4033673,0 L31.05,26.5105996 C27.2936009,28.6610471 22.4900815,27.384794 20.3212339,23.6599415 L12.5285663,10.6386648 C10.3597187,6.91362652 11.6467807,2.15044752 15.4033673,0" id="Fill-29" fill="#3333FF"></path>
                    <path d="M29.5783296,0 L29.5783296,0 L45.225,26.5105996 C41.4684495,28.6610471 36.664976,27.384794 34.4961492,23.6599415 L26.7035562,10.6386648 C24.5347294,6.91362652 25.8217791,2.15044752 29.5783296,0" id="Fill-30" fill="#3333FF"></path>
                </g>
            </g>
        </g>
    </g>
</svg>