<?xml version="1.0" encoding="UTF-8"?>
<svg width="200px" height="42px" viewBox="0 0 200 42" version="1.1" xmlns="http://www.w3.org/2000/svg" xmlns:xlink="http://www.w3.org/1999/xlink">
    <title>6D5955F9-B27E-4CAA-AD14-D976B9A8B90D</title>
    <g id="Pages" stroke="none" stroke-width="1" fill="none" fill-rule="evenodd">
        <g id="M---AM-Homepage" transform="translate(-15.000000, -6283.000000)">
            <g id="Footer-/-Desktop" transform="translate(0.000000, 6259.000000)">
                <g id="AM_Logo_fullcolor" transform="translate(15.000000, 24.000000)">
                    <path d="M84.1652282,10.4725588 L81.2352144,2.96412172 L78.213361,10.4725588 L84.1652282,10.4725588 Z M80.3652282,0.583762102 L82.1049239,0.583762102 L88.7433748,16.8365975 L86.5458645,16.8365975 L84.6230429,12.0750484 L77.8014661,12.0750484 L75.9013278,16.8365975 L73.7040941,16.8365975 L80.3652282,0.583762102 Z" id="Fill-1" fill="#000033"></path>
                    <path d="M103.004371,8.68691563 C103.004371,7.77156293 102.878506,6.92840941 102.626777,6.15773167 C102.375048,5.38733057 102.000775,4.7273029 101.505062,4.17764869 C101.009073,3.62827109 100.402434,3.19701245 99.6851452,2.88414938 C98.9675795,2.57156293 98.1515353,2.41471646 97.2356293,2.41471646 L93.664675,2.41471646 L93.664675,15.0050346 L97.2356293,15.0050346 C98.166473,15.0050346 98.9944122,14.8451452 99.7194467,14.52426 C100.444205,14.2036515 101.047248,13.7613278 101.528022,13.1967358 C102.00852,12.6321438 102.375048,11.9643707 102.626777,11.1939696 C102.878506,10.4232918 103.004371,9.58760719 103.004371,8.68691563 L103.004371,8.68691563 Z M91.6046473,16.8365698 L91.6046473,0.58373444 L97.2356293,0.58373444 C98.5327248,0.58373444 99.6738036,0.797565698 100.658036,1.22439834 C101.642268,1.65178423 102.462462,2.23159059 103.118893,2.96437068 C103.774772,3.69687414 104.266888,4.55524205 104.595242,5.53975104 C104.92332,6.52426003 105.087358,7.57349931 105.087358,8.68691563 C105.087358,9.92315353 104.904509,11.0415491 104.537981,12.0404426 C104.171729,13.0404426 103.645311,13.8946611 102.958451,14.604758 C102.271867,15.3140249 101.443928,15.8634025 100.47491,16.2526141 C99.5056155,16.6421024 98.4262241,16.8365698 97.2356293,16.8365698 L91.6046473,16.8365698 Z" id="Fill-2" fill="#000033"></path>
                    <polygon id="Fill-4" fill="#000033" points="107.990899 0.58373444 113.370429 14.2495712 118.726999 0.58373444 120.901549 0.58373444 114.263098 16.8365698 112.477483 16.8365698 105.816349 0.58373444"></polygon>
                    <path d="M130.095934,10.4725588 L127.16592,2.96412172 L124.144066,10.4725588 L130.095934,10.4725588 Z M126.295934,0.583762102 L128.035629,0.583762102 L134.67408,16.8365975 L132.47657,16.8365975 L130.553748,12.0750484 L123.732172,12.0750484 L121.832033,16.8365975 L119.634799,16.8365975 L126.295934,0.583762102 Z" id="Fill-6" fill="#000033"></path>
                    <polygon id="Fill-8" fill="#000033" points="139.595463 4.42948824 139.595463 16.8366805 137.535159 16.8366805 137.535159 0.58384509 139.137649 0.58384509 149.209848 13.2424896 149.209848 0.606528354 151.270152 0.606528354 151.270152 16.8366805 149.530456 16.8366805"></polygon>
                    <path d="M154.518368,8.59560166 C154.518368,7.61939142 154.690152,6.64622407 155.033444,5.67692946 C155.376736,4.70818811 155.880194,3.83847856 156.544094,3.0675242 C157.207994,2.29684647 158.020719,1.67499308 158.981992,1.20168741 C159.943541,0.729211618 161.03455,0.49186722 162.255574,0.49186722 C163.70509,0.49186722 164.948797,0.820497925 165.986694,1.47637621 C167.024315,2.13280775 167.79527,2.98757953 168.298728,4.04041494 L166.673555,5.09352697 C166.429295,4.57485477 166.135519,4.14 165.792227,3.78813278 C165.448935,3.43764869 165.074661,3.15549101 164.670512,2.94165975 C164.266086,2.72810512 163.850041,2.5751314 163.422932,2.48329184 C162.995546,2.39200553 162.575906,2.34608575 162.164011,2.34608575 C161.26332,2.34608575 160.466086,2.53308437 159.771757,2.9070816 C159.077151,3.28135546 158.493472,3.76932227 158.020719,4.37208852 C157.547414,4.9751314 157.192503,5.6542462 156.956266,6.40970954 C156.719474,7.16489627 156.601355,7.92395574 156.601355,8.68688797 C156.601355,9.542213 156.742434,10.3546611 157.024869,11.1253389 C157.307026,11.89574 157.700111,12.5784509 158.203845,13.1740249 C158.70758,13.768769 159.3026,14.2420747 159.989184,14.5933887 C160.676044,14.944426 161.423485,15.1195297 162.232614,15.1195297 C162.659723,15.1195297 163.098728,15.0661411 163.549073,14.9596404 C163.998866,14.8525864 164.430124,14.6808022 164.842296,14.4442877 C165.254467,14.2080498 165.63953,13.9104011 165.998313,13.5516183 C166.356542,13.1928354 166.650595,12.7618534 166.87964,12.2581189 L168.596376,13.1967082 C168.336625,13.8072199 167.974523,14.3452559 167.508963,14.8105394 C167.043402,15.2760996 166.516985,15.6689073 165.929433,15.9895159 C165.341881,16.3098479 164.719751,16.5541079 164.063873,16.7220194 C163.407718,16.8893776 162.766501,16.9737483 162.141051,16.9737483 C161.026805,16.9737483 160.004398,16.7294882 159.073555,16.2412448 C158.142711,15.753278 157.337455,15.115657 156.658617,14.3297649 C155.979502,13.5441494 155.452808,12.6514799 155.079087,11.6514799 C154.70509,10.6525864 154.518368,9.63349931 154.518368,8.59560166" id="Fill-10" fill="#000033"></path>
                    <polygon id="Fill-12" fill="#000033" points="182.903264 15.0049793 182.903264 16.8365145 171.869516 16.8365145 171.869516 0.583679115 182.697178 0.583679115 182.697178 2.41466113 173.92982 2.41466113 173.92982 7.67994467 181.55278 7.67994467 181.55278 9.39695712 173.92982 9.39695712 173.92982 15.0049793"></polygon>
                    <path d="M197.805339,8.68691563 C197.805339,7.77156293 197.679474,6.92840941 197.427746,6.15773167 C197.176017,5.38733057 196.801743,4.7273029 196.30603,4.17764869 C195.810041,3.62827109 195.203402,3.19701245 194.486113,2.88414938 C193.768548,2.57156293 192.952503,2.41471646 192.036598,2.41471646 L188.465643,2.41471646 L188.465643,15.0050346 L192.036598,15.0050346 C192.967441,15.0050346 193.79538,14.8451452 194.520415,14.52426 C195.245173,14.2036515 195.848216,13.7613278 196.32899,13.1967358 C196.809488,12.6321438 197.176017,11.9643707 197.427746,11.1939696 C197.679474,10.4232918 197.805339,9.58760719 197.805339,8.68691563 L197.805339,8.68691563 Z M186.405615,16.8365698 L186.405615,0.58373444 L192.036598,0.58373444 C193.333693,0.58373444 194.474772,0.797565698 195.459004,1.22439834 C196.443237,1.65178423 197.26343,2.23159059 197.919862,2.96437068 C198.57574,3.69687414 199.067856,4.55524205 199.39621,5.53975104 C199.724288,6.52426003 199.888326,7.57349931 199.888326,8.68691563 C199.888326,9.92315353 199.705477,11.0415491 199.338949,12.0404426 C198.972697,13.0404426 198.446279,13.8946611 197.759419,14.604758 C197.072835,15.3140249 196.244896,15.8634025 195.275878,16.2526141 C194.306584,16.6421024 193.227192,16.8365698 192.036598,16.8365698 L186.405615,16.8365698 Z" id="Fill-14" fill="#000033"></path>
                    <polygon id="Fill-16" fill="#000033" points="89.4759336 40.4680221 89.4759336 27.9003873 84.0737206 37.5380083 82.9060858 37.5380083 77.4809129 27.9003873 77.4809129 40.4680221 75.4206086 40.4680221 75.4206086 24.2151867 77.5954357 24.2151867 83.4784232 34.7681604 89.3843707 24.2151867 91.5362379 24.2151867 91.5362379 40.4680221"></polygon>
                    <path d="M104.58213,34.1040111 L101.652116,26.595574 L98.6302628,34.1040111 L104.58213,34.1040111 Z M100.78213,24.2152144 L102.521826,24.2152144 L109.160277,40.4680498 L106.962766,40.4680498 L105.039945,35.7065007 L98.2183679,35.7065007 L96.3182296,40.4680498 L94.1209959,40.4680498 L100.78213,24.2152144 Z" id="Fill-18" fill="#000033"></path>
                    <polygon id="Fill-20" fill="#000033" points="113.805035 28.0609405 113.805035 40.4681328 111.74473 40.4681328 111.74473 24.2152974 113.34722 24.2152974 123.419419 36.8739419 123.419419 24.2379806 125.479723 24.2379806 125.479723 40.4681328 123.740028 40.4681328"></polygon>
                    <polygon id="Fill-22" fill="#000033" points="129.504205 40.4680221 129.504205 24.23787 131.564509 24.23787 131.564509 33.2115906 139.942656 24.2151867 142.163126 24.2151867 135.639198 31.3797787 142.529378 40.4680221 140.285947 40.4680221 134.38 32.5700968 131.564509 35.5006639 131.564509 40.4680221"></polygon>
                    <polygon id="Fill-24" fill="#000033" points="145.115906 40.4680498 147.17621 40.4680498 147.17621 24.2152144 145.115906 24.2152144"></polygon>
                    <polygon id="Fill-26" fill="#000033" points="153.537759 28.0609405 153.537759 40.4681328 151.477455 40.4681328 151.477455 24.2152974 153.079945 24.2152974 163.152144 36.8739419 163.152144 24.2379806 165.212448 24.2379806 165.212448 40.4681328 163.472752 40.4681328"></polygon>
                    <path d="M180.636902,32.3183679 C180.636902,31.4030152 180.511037,30.5598617 180.259308,29.789184 C180.00758,29.0187828 179.633306,28.3587552 179.137593,27.809101 C178.641604,27.2597234 178.034965,26.8284647 177.317676,26.5156017 C176.600111,26.2030152 175.784066,26.0461687 174.86816,26.0461687 L171.297206,26.0461687 L171.297206,38.6364869 L174.86816,38.6364869 C175.799004,38.6364869 176.626943,38.4765975 177.351978,38.1557123 C178.076736,37.8351037 178.679779,37.3927801 179.160553,36.8281881 C179.641051,36.2635961 180.00758,35.595823 180.259308,34.8254219 C180.511037,34.0547441 180.636902,33.2190595 180.636902,32.3183679 L180.636902,32.3183679 Z M169.237178,40.4680221 L169.237178,24.2151867 L174.86816,24.2151867 C176.165256,24.2151867 177.306335,24.429018 178.290567,24.8558506 C179.274799,25.2832365 180.094993,25.8630429 180.751425,26.595823 C181.407303,27.3283264 181.899419,28.1866943 182.227773,29.1712033 C182.555851,30.1557123 182.719889,31.2049516 182.719889,32.3183679 C182.719889,33.5546058 182.53704,34.6730014 182.170512,35.6718949 C181.80426,36.6718949 181.277842,37.5261134 180.590982,38.2362102 C179.904398,38.9454772 179.076459,39.4948548 178.107441,39.8840664 C177.138147,40.2735546 176.058755,40.4680221 174.86816,40.4680221 L169.237178,40.4680221 Z" id="Fill-27" fill="#000033"></path>
                    <path d="M-2.76625173e-05,38.8101521 C5.03344398,41.7385062 11.4940249,40.0585615 14.4583402,35.0361549 C17.4226556,30.0137483 15.7709267,23.5459751 10.7745228,20.5545505 L-2.76625173e-05,38.8101521 Z" id="Fill-28" fill="#3333FF"></path>
                    <path d="M22.7534716,0.27659751 L22.7534716,0.27659751 L45.8430982,39.7294329 C40.2998064,42.9297095 33.2112863,41.0304011 30.0107331,35.4871093 L18.511148,16.1089627 C15.3105947,10.5653942 17.2099032,3.47687414 22.7534716,0.27659751" id="Fill-29" fill="#3333FF"></path>
                    <path d="M43.846971,0.27659751 L43.846971,0.27659751 L66.9368741,39.7294329 C61.3933057,42.9297095 54.3047856,41.0304011 51.1042324,35.4871093 L39.6046473,16.1089627 C36.4040941,10.5653942 38.3034025,3.47687414 43.846971,0.27659751" id="Fill-30" fill="#3333FF"></path>
                </g>
            </g>
        </g>
    </g>
</svg>