<?xml version="1.0" encoding="UTF-8"?>
<svg width="32px" height="50px" viewBox="0 0 32 50" version="1.1" xmlns="http://www.w3.org/2000/svg" xmlns:xlink="http://www.w3.org/1999/xlink">
    <title>B2734F9D-FB84-47DC-A423-744B69A00D47</title>
    <g id="Dev-Assets" stroke="none" stroke-width="1" fill="none" fill-rule="evenodd">
        <g id="Dev-Notes---UX-Features" transform="translate(-341.000000, -3895.000000)" fill-rule="nonzero">
            <g id="apple-watch" transform="translate(341.602101, 3895.000000)">
                <path d="M22.1591797,9.61611328 C5.15322266,9.70380859 5.59140625,9.41835937 4.12236328,9.8734375 L4.07929688,9.8734375 C6.39511719,9.16328125 6.85068359,7.11181641 6.90839844,6.82255859 L7.27050781,1.42119141 C7.32490234,1.04023437 7.61210938,0.702148437 8.01582031,0.613085937 C11.6604492,-0.190917969 16.5441406,-0.179492188 19.9910156,0.503320312 C20.3139648,0.567382812 20.5612305,0.828417969 20.6075195,1.15439453 L21.0001953,6.78300781 C21.0001953,6.78300781 21.3079102,9.00429687 23.6665039,9.81699219 C23.1857422,9.68681641 22.6806641,9.61611328 22.1591797,9.61611328 Z" id="Path" fill="#535454"></path>
                <path d="M11.2958984,0.800488281 L10.9337891,6.83681641 C10.8875977,7.0953125 10.5859375,8.61259766 9.28300781,9.61621094 C6.28847656,9.67470703 5.45439453,9.46083984 4.12236328,9.87353516 L4.07929687,9.87353516 C6.39511719,9.16337891 6.85068359,7.11191406 6.90839844,6.82265625 C7.00527344,5.40068359 7.26035156,1.47832031 7.28212891,1.36855469 C7.41113281,0.721289063 8.02861328,0.606640625 8.01855469,0.6125 C9.26123047,0.338574219 10.3979492,0.19609375 11.6567383,0.102148438 C11.4541992,0.281738281 11.3285156,0.545605469 11.2958984,0.800488281 Z" id="Path" fill="#444443"></path>
                <g id="Group" transform="translate(27.832031, 17.285156)" fill="#CCCCCC">
                    <path d="M1.54375,0.0717773438 L1.23515625,0.0717773438 C0.556152344,0.0717773438 0.00068359375,0.62734375 0.00068359375,1.30625 L0.00068359375,3.15800781 C0.00068359375,3.83701172 0.55625,4.39248047 1.23515625,4.39248047 L1.54375,4.39248047 C2.22275391,4.39248047 2.77822266,3.83701172 2.77822266,3.15800781 L2.77822266,1.30625 C2.77832031,0.62734375 2.22275391,0.0717773438 1.54375,0.0717773438 Z" id="Path"></path>
                    <path d="M1.54375,8.78183594 L1.23515625,8.78183594 C0.556152344,8.78183594 0.00068359375,9.33730469 0.00068359375,10.0163086 C0.00068359375,11.4813477 0.00068359375,13.4478516 0.00068359375,14.7828125 C0.00068359375,15.4618164 0.55625,16.0172852 1.23515625,16.0172852 L1.54375,16.0172852 C2.22275391,16.0172852 2.77822266,15.4618164 2.77822266,14.7828125 C2.77822266,11.6436523 2.77822266,12.781543 2.77822266,10.0163086 C2.77832031,9.33740234 2.22275391,8.78183594 1.54375,8.78183594 Z" id="Path"></path>
                </g>
                <path d="M29.3757813,30.0012695 L29.0671875,30.0012695 C28.3881836,30.0012695 27.8327148,29.4458008 27.8327148,28.7667969 C27.8327148,29.9910156 27.8327148,30.9563477 27.8327148,32.0680664 C27.8327148,32.7470703 28.3882813,33.3025391 29.0671875,33.3025391 L29.3757813,33.3025391 C30.0547852,33.3025391 30.6102539,32.7470703 30.6102539,32.0680664 C30.6102539,30.968457 30.6102539,29.8676758 30.6102539,28.7667969 C30.6103516,29.4458008 30.0547852,30.0012695 29.3757813,30.0012695 Z" id="Path" fill="#BABABA"></path>
                <path d="M5.82822266,40.3848633 C5.23466797,40.3848633 4.66181641,40.2946289 4.12246094,40.1275391 L4.07939453,40.1275391 C6.39521484,40.8376953 6.85078125,42.8891602 6.90849609,43.178418 C7.00507812,44.596875 7.26054687,48.5230469 7.28222656,48.6325195 C7.41123047,49.2797852 8.02871094,49.3944336 8.01865234,49.3885742 C11.6609375,50.1915039 16.5530273,50.1788086 19.9910156,49.4977539 C20.3139648,49.4336914 20.5612305,49.1726563 20.6075195,48.8466797 L21.0001953,43.2180664 C21.0001953,43.2180664 21.3079102,40.9967773 23.6665039,40.184082 C22.3470703,40.5412109 22.9488281,40.3151367 5.82822266,40.3848633 Z" id="Path" fill="#535454"></path>
                <path d="M11.2958984,49.2004883 L10.9337891,43.1641602 C10.8875977,42.9056641 10.5859375,41.3883789 9.28300781,40.3847656 C6.28847656,40.3262695 5.45439453,40.5401367 4.12236328,40.1274414 L4.07929687,40.1274414 C6.39511719,40.8375977 6.85068359,42.8890625 6.90839844,43.1783203 L7.27050781,48.5796875 C7.32490234,48.9598633 7.61132812,49.2986328 8.01582031,49.387793 C9.24892578,49.6597656 10.3821289,49.8036133 11.6568359,49.8987305 C11.4541992,49.7193359 11.3285156,49.4553711 11.2958984,49.2004883 Z" id="Path" fill="#444443"></path>
                <path d="M22.1591797,40.5860352 L5.828125,40.5860352 C2.64423828,40.5860352 0.0540039062,37.9958008 0.0540039062,34.8120117 L0.0540039062,15.1889648 C0.0540039062,12.0051758 2.64423828,9.41484375 5.828125,9.41484375 L22.1591797,9.41484375 C25.3430664,9.41484375 27.9332031,12.0050781 27.9332031,15.1889648 L27.9332031,34.8120117 C27.9332031,37.9958008 25.3430664,40.5860352 22.1591797,40.5860352 Z" id="Path" fill="#EFEFEF"></path>
                <path d="M2.83173828,34.8120117 L2.83173828,15.1889648 C2.83173828,12.0051758 5.42197266,9.41494141 8.60576172,9.41494141 L5.828125,9.41494141 C2.64423828,9.41494141 0.0541015625,12.0051758 0.0541015625,15.1889648 L0.0541015625,34.8120117 C0.0541015625,37.9958008 2.64433594,40.5860352 5.828125,40.5860352 L8.60576172,40.5860352 C5.42197266,40.5860352 2.83173828,37.9958008 2.83173828,34.8120117 Z" id="Path" fill="#DDDDDD"></path>
                <path d="M5.82822266,12.1925781 C4.17597656,12.1925781 2.83173828,13.5368164 2.83173828,15.1890625 L2.83173828,34.8121094 C2.83173828,36.4643555 4.17597656,37.8085938 5.82822266,37.8085938 L22.1592773,37.8085938 C23.8115234,37.8085938 25.1557617,36.4643555 25.1557617,34.8121094 L25.1557617,15.1890625 C25.1557617,13.5368164 23.8115234,12.1925781 22.1592773,12.1925781 C22.1592773,12.1925781 5.82822266,12.1925781 5.82822266,12.1925781 Z" id="Path" fill="#CCCCCC"></path>
                <path d="M5.83916016,34.8120117 L5.83916016,15.1889648 C5.83916016,13.5367187 7.18339844,12.1925781 8.83554688,12.1925781 L5.82822266,12.1925781 C4.17597656,12.1925781 2.83173828,13.5368164 2.83173828,15.1889648 L2.83173828,34.8120117 C2.83173828,36.4642578 4.17597656,37.8084961 5.82822266,37.8084961 L8.83554688,37.8084961 C7.18330078,37.8084961 5.83916016,36.4642578 5.83916016,34.8120117 Z" id="Path" fill="#BABABA"></path>
                <g id="Group" transform="translate(5.175781, 14.550781)" fill="#EFEFEF">
                    <path d="M14.3114258,21.2884766 L3.32441406,21.2884766 C2.90771484,21.2884766 2.56982422,20.9506836 2.56982422,20.5338867 C2.56982422,20.1170898 2.90761719,19.7792969 3.32441406,19.7792969 L14.3114258,19.7792969 C14.728125,19.7792969 15.0660156,20.1170898 15.0660156,20.5338867 C15.0660156,20.9506836 14.728125,21.2884766 14.3114258,21.2884766 Z" id="Path"></path>
                    <circle id="Oval" cx="1.46210938" cy="1.42392578" r="1.38261719"></circle>
                </g>
                <path d="M6.63818359,15.9743164 C6.38242187,15.5313477 6.40087891,15.0063477 6.63876953,14.5927715 C6.40351563,14.5923828 6.16523438,14.6508789 5.946875,14.7769531 C5.28564453,15.1586914 5.05908203,16.0042969 5.44082031,16.665625 C5.82265625,17.3268555 6.66816406,17.5535156 7.32949219,17.1716797 C7.54785156,17.0456055 7.71757812,16.8683594 7.83496094,16.6645508 C7.35771484,16.6638672 6.89384766,16.4172852 6.63818359,15.9743164 Z" id="Path" fill="#DDDDDD"></path>
                <circle id="Oval" fill="#898989" cx="13.9582031" cy="24.9415039" r="7.64746094"></circle>
                <path d="M9.94941406,27.2558594 C8.09609375,24.0458008 8.83525391,20.0510742 11.5163086,17.6939453 C6.92138672,19.2474609 4.93115234,24.6005859 7.33544922,28.7650391 C9.44716797,32.4225586 14.1240234,33.6756836 17.781543,31.5640625 C18.2290039,31.3056641 18.6399414,31.0084961 19.0136719,30.6798828 C15.6318359,31.8231445 11.8027344,30.465918 9.94941406,27.2558594 Z" id="Path" fill="#777777"></path>
                <g id="Group" transform="translate(13.085938, 20.312500)" fill="#535454">
                    <path d="M0.771484375,5.44257813 C0.354785156,5.44257813 0.0168945313,5.10478516 0.0168945313,4.68798828 L0.0168945313,0.787402344 C0.0168945313,0.370605469 0.3546875,0.0328125 0.771484375,0.0328125 C1.18818359,0.0328125 1.52607422,0.370605469 1.52607422,0.787402344 L1.52607422,4.68798828 C1.52607422,5.10478516 1.18828125,5.44257813 0.771484375,5.44257813 Z" id="Path"></path>
                    <path d="M4.31611328,8.8125 C4.13935547,8.8125 3.96181641,8.75078125 3.81855469,8.62490234 L0.273632812,5.51210938 C-0.039453125,5.23710938 -0.0704101563,4.76035156 0.204492187,4.44726563 C0.479492187,4.13408203 0.95625,4.10302734 1.26943359,4.378125 L4.81435547,7.49091797 C5.12744141,7.76591797 5.15839844,8.24267578 4.88349609,8.55576172 C4.73427734,8.72568359 4.52568359,8.8125 4.31611328,8.8125 Z" id="Path"></path>
                </g>
                <circle id="Oval" fill="#EFEFEF" cx="21.2775391" cy="15.974707" r="1.38261719"></circle>
                <path d="M21.2779297,15.9743164 C21.022168,15.5313477 21.040625,15.0063477 21.2785156,14.5927718 C20.2241211,14.5912109 19.5453125,15.7385742 20.0805664,16.6655273 C20.4624023,17.3267578 21.3079102,17.553418 21.9692383,17.171582 C22.1875977,17.0455078 22.3573242,16.8682617 22.474707,16.6644531 C21.9975586,16.6638672 21.5336914,16.4172852 21.2779297,15.9743164 Z" id="Path" fill="#DDDDDD"></path>
                <circle id="Oval" fill="#EFEFEF" cx="13.8996094" cy="25.0010742" r="1.38261719"></circle>
                <path d="M13.9,23.6192367 C12.8456055,23.6176758 12.1667969,24.7650391 12.7020508,25.6919922 C13.0838867,26.3533203 13.9293945,26.5798828 14.5907227,26.1980469 C14.809082,26.0719727 14.9788086,25.8947266 15.0961914,25.690918 C14.0327148,25.6893555 13.3685547,24.5427734 13.9,23.6192367 Z" id="Path" fill="#DDDDDD"></path>
            </g>
        </g>
    </g>
</svg>