<?xml version="1.0" encoding="UTF-8"?>
<svg width="14px" height="14px" viewBox="0 0 14 14" version="1.1" xmlns="http://www.w3.org/2000/svg" xmlns:xlink="http://www.w3.org/1999/xlink">
    <title>2FF16ED8-A39A-4424-958D-7BA236DFD6B6</title>
    <defs>
        <path d="M0.232,7.3596 C0.585,6.9356 1.215,6.8776 1.64,7.2316 L1.64,7.2316 L7.011,11.7076 L12.373,7.3926 C12.803,7.0476 13.434,7.1156 13.779,7.5446 C14.125,7.9756 14.057,8.6046 13.627,8.9516 L13.627,8.9516 L7.627,13.7796 C7.444,13.9266 7.222,13.9996 7,13.9996 C6.772,13.9996 6.545,13.9226 6.36,13.7676 L6.36,13.7676 L0.36,8.7676 C-0.065,8.4146 -0.122,7.7846 0.232,7.3596 Z M0.2319,0.3601 C0.5859,-0.0649 1.2149,-0.1209 1.6399,0.2321 L1.6399,0.2321 L7.0109,4.7071 L12.3729,0.3931 C12.8029,0.0471 13.4339,0.1151 13.7789,0.5451 C14.1259,0.9751 14.0569,1.6041 13.6269,1.9511 L13.6269,1.9511 L7.6269,6.7791 C7.4439,6.9261 7.2219,7.0001 6.9999,7.0001 C6.7729,7.0001 6.5449,6.9231 6.3599,6.7681 L6.3599,6.7681 L0.3599,1.7681 C-0.0641,1.4141 -0.1211,0.7841 0.2319,0.3601 Z" id="path-1"></path>
    </defs>
    <g id="Dev-Assets" stroke="none" stroke-width="1" fill="none" fill-rule="evenodd">
        <g id="Dev-Notes---Icons-&amp;-Assets" transform="translate(-77.000000, -268.000000)">
            <g id="27)-Icon/arrowhead-down" transform="translate(77.000000, 268.000000)">
                <mask id="mask-2" fill="white">
                    <use xlink:href="#path-1"></use>
                </mask>
                <use id="🎨-Icon-Сolor" fill="#222B45" xlink:href="#path-1"></use>
            </g>
        </g>
    </g>
</svg>