<?xml version="1.0" encoding="UTF-8"?>
<svg width="50px" height="46px" viewBox="0 0 50 46" version="1.1" xmlns="http://www.w3.org/2000/svg" xmlns:xlink="http://www.w3.org/1999/xlink">
    <title>AF91B285-F8E6-432A-AA8D-6DD7256912D7</title>
    <g id="Pages" stroke="none" stroke-width="1" fill="none" fill-rule="evenodd">
        <g id="M---Careers" transform="translate(-20.000000, -2728.000000)" fill="#3333FF">
            <g id="Section-2:-Our-Perks" transform="translate(15.000000, 883.000000)">
                <g id="Column-7" transform="translate(0.000000, 1838.000000)">
                    <g id="27)-Icon/briefcase" transform="translate(5.000000, 7.000000)">
                        <path d="M20,6.75 C20,6.06 20.56,5.5 21.25,5.5 L28.75,5.5 C29.44,5.5 30,6.06 30,6.75 L30,10.5 L20,10.5 L20,6.75 Z M32.5,15.5 L32.5,40.5 L17.5,40.5 L17.5,15.5 L32.5,15.5 Z M42.5,15.5 C43.8775,15.5 45,16.6225 45,18 L45,38 C45,39.3775 43.8775,40.5 42.5,40.5 L37.5,40.5 L37.5,15.5 L42.5,15.5 Z M12.5,15.5 L12.5,40.5 L7.5,40.5 C6.1225,40.5 5,39.3775 5,38 L5,18 C5,16.6225 6.1225,15.5 7.5,15.5 L12.5,15.5 Z M42.5,10.5 L35,10.5 L35,6.75 C35,3.305 32.195,0.5 28.75,0.5 L21.25,0.5 C17.805,0.5 15,3.305 15,6.75 L15,10.5 L7.5,10.5 C3.365,10.5 0,13.865 0,18 L0,38 C0,42.135 3.365,45.5 7.5,45.5 L42.5,45.5 C46.635,45.5 50,42.135 50,38 L50,18 C50,13.865 46.635,10.5 42.5,10.5 L42.5,10.5 Z" id="🎨-Icon-Сolor"></path>
                    </g>
                </g>
            </g>
        </g>
    </g>
</svg>