<?xml version="1.0" encoding="UTF-8"?>
<svg width="46px" height="50px" viewBox="0 0 46 50" version="1.1" xmlns="http://www.w3.org/2000/svg" xmlns:xlink="http://www.w3.org/1999/xlink">
    <title>3412E743-1CC2-4433-ACD4-9E98880AA1BF</title>
    <defs>
        <path d="M13,32.5 C14.375,32.5 15.5,33.625 15.5,35 C15.5,36.375 14.375,37.5 13,37.5 C11.625,37.5 10.5,36.375 10.5,35 C10.5,33.625 11.625,32.5 13,32.5 Z M33,32.5 C34.375,32.5 35.5,33.625 35.5,35 C35.5,36.375 34.375,37.5 33,37.5 L33,37.5 L23,37.5 C21.625,37.5 20.5,36.375 20.5,35 C20.5,33.625 21.625,32.5 23,32.5 L23,32.5 Z M38,45 L8,45 C6.6225,45 5.5,43.8775 5.5,42.5 L5.5,27.5 L40.5,27.5 L40.5,42.5 C40.5,43.8775 39.3775,45 38,45 M8,10 L10.5,10 L10.5,12.5 C10.5,13.875 11.625,15 13,15 C14.375,15 15.5,13.875 15.5,12.5 L15.5,10 L30.5,10 L30.5,12.5 C30.5,13.875 31.625,15 33,15 C34.375,15 35.5,13.875 35.5,12.5 L35.5,10 L38,10 C39.3775,10 40.5,11.1225 40.5,12.5 L40.5,22.5 L5.5,22.5 L5.5,12.5 C5.5,11.1225 6.6225,10 8,10 M38,5 L35.5,5 L35.5,2.5 C35.5,1.125 34.375,0 33,0 C31.625,0 30.5,1.125 30.5,2.5 L30.5,5 L15.5,5 L15.5,2.5 C15.5,1.125 14.375,0 13,0 C11.625,0 10.5,1.125 10.5,2.5 L10.5,5 L8,5 C3.865,5 0.5,8.365 0.5,12.5 L0.5,42.5 C0.5,46.635 3.865,50 8,50 L38,50 C42.135,50 45.5,46.635 45.5,42.5 L45.5,12.5 C45.5,8.365 42.135,5 38,5" id="path-1"></path>
    </defs>
    <g id="Pages" stroke="none" stroke-width="1" fill="none" fill-rule="evenodd">
        <g id="M---Careers" transform="translate(-22.000000, -2995.000000)">
            <g id="Section-2:-Our-Perks" transform="translate(15.000000, 883.000000)">
                <g id="Column-8" transform="translate(0.000000, 2107.000000)">
                    <g id="27)-Icon/calendar" transform="translate(7.000000, 5.000000)">
                        <mask id="mask-2" fill="white">
                            <use xlink:href="#path-1"></use>
                        </mask>
                        <use id="🎨-Icon-Сolor" fill="#3333FF" xlink:href="#path-1"></use>
                    </g>
                </g>
            </g>
        </g>
    </g>
</svg>