<?xml version="1.0" encoding="UTF-8"?>
<svg width="85px" height="80px" viewBox="0 0 85 80" version="1.1" xmlns="http://www.w3.org/2000/svg" xmlns:xlink="http://www.w3.org/1999/xlink">
    <title>87C622D3-C8BA-4C14-8746-4117A126271B</title>
    <g id="Case-Studies" stroke="none" stroke-width="1" fill="none" fill-rule="evenodd">
        <g id="D---Case-studies-GuideX" transform="translate(-388.000000, -5207.000000)" fill="#FFFFFF" fill-rule="nonzero">
            <g id="Implementaiton" transform="translate(150.000000, 4893.000000)">
                <g id="KPIs" transform="translate(176.000000, 237.000000)">
                    <g id="Cart-Icon" transform="translate(62.000000, 77.000000)">
                        <path d="M83.0914965,7.71536054 L19.1359432,7.71536054 L18.8759692,6.80661002 C17.7117303,2.7861775 14.0242751,0.0133377045 9.82421311,0 L1.85695713,0 C0.831388025,0 0,0.828284167 0,1.85002447 C0,2.87176477 0.831388025,3.70004894 1.85695713,3.70004894 L9.82419454,3.70004894 C12.3670878,3.70804554 14.5996355,5.38687908 15.3043907,7.82105244 L26.5558425,47.1539416 C28.0829014,52.4285077 32.9209487,56.0660476 38.4310833,56.0824742 L79.4111189,56.0824742 C80.436688,56.0824742 81.268076,55.2541901 81.268076,54.2324498 C81.268076,53.2107095 80.436688,52.3824253 79.4111189,52.3824253 L38.4311205,52.3824253 C34.5781915,52.3709357 31.1953763,49.8270094 30.1283123,46.1385927 L29.3767646,43.511706 L70.0782752,43.511706 C78.2873012,43.502346 84.9395506,36.8745344 84.9484536,28.696155 L84.9484536,9.56538501 C84.9484536,8.5436701 84.1170401,7.71542184 83.0914965,7.71536054 Z M81.2345394,28.696155 C81.2276836,34.8318993 76.2370116,39.8043367 70.0782752,39.811657 L28.3182805,39.811657 L22.4774447,19.395453 L62.6132704,19.395453 C63.6388395,19.395453 64.4702275,18.5671688 64.4702275,17.5454285 C64.4702275,16.5236882 63.6388395,15.6954041 62.6132704,15.6954041 L21.4189606,15.6954041 L20.1944088,11.4154095 L81.2345394,11.4154095 L81.2345394,28.696155 Z" id="Shape"></path>
                        <path d="M35.0525793,62.6804124 C31.5500691,62.6800458 28.3922182,64.7895774 27.0515286,68.0253352 C25.710839,71.261093 26.4513369,74.9858492 28.927729,77.4627544 C31.4041211,79.9396597 35.1287238,80.6809293 38.3647594,79.3409103 C41.600795,78.0008913 43.710981,74.8434776 43.7113402,71.3409675 C43.705817,66.560865 39.8326807,62.686926 35.0525793,62.6804124 L35.0525793,62.6804124 Z M35.0525793,76.2999329 C33.0463334,76.3002994 31.2374487,75.0919999 30.4695223,73.2385406 C29.7015958,71.3850813 30.1258838,69.2515322 31.5445139,67.8329022 C32.9631439,66.4142722 35.096693,65.9899842 36.9501524,66.7579106 C38.8036117,67.525837 40.0119113,69.3347217 40.0115448,71.3409675 C40.0085371,74.0784817 37.7900935,76.2969252 35.0525793,76.2999329 L35.0525793,76.2999329 Z" id="Shape"></path>
                        <path d="M72.1659998,62.6804124 C68.663488,62.6800383 65.5056314,64.7895652 64.1649359,68.0253224 C62.8242405,71.2610796 63.5647339,74.9858388 66.0411245,77.4627479 C68.5175151,79.939657 72.2421193,80.68093 75.4781572,79.3409121 C78.7141951,78.0008941 80.8243831,74.8434793 80.8247423,71.3409675 C80.8192293,66.560868 76.9460982,62.6869261 72.1659998,62.6804124 Z M72.1659998,76.2999329 C70.1597523,76.3003069 68.3508619,75.0920121 67.5829296,73.2385534 C66.8149974,71.3850947 67.2392808,69.2515426 68.6579094,67.8329087 C70.076538,66.4142749 72.2100886,65.9899835 74.0635502,66.7579088 C75.9170118,67.5258341 77.1253134,69.33472 77.1249468,71.3409675 C77.1219494,74.0784787 74.9035111,76.2969252 72.1659998,76.2999329 L72.1659998,76.2999329 Z" id="Shape"></path>
                        <path d="M69.8933908,19.1992505 C70.2792868,19.5729255 70.7928179,19.7855116 71.3296421,19.7938144 C71.6045744,19.7930048 71.8765989,19.7374497 72.1298773,19.6303838 C72.3744486,19.5306476 72.5972752,19.3841826 72.7859131,19.1991683 C72.979635,19.0052837 73.133169,18.7749827 73.2376902,18.521503 C73.5693971,17.754053 73.3892306,16.861032 72.7859952,16.2826119 C72.598492,16.0911928 72.3757053,15.937969 72.1299594,15.8314168 C71.3629638,15.504612 70.4741574,15.6839223 69.8934728,16.2826119 C69.2909716,16.8614755 69.1112274,17.7541866 69.4426803,18.521503 C69.5468005,18.7749626 69.6999775,19.0052996 69.8933908,19.1992505 L69.8933908,19.1992505 Z" id="Path"></path>
                    </g>
                </g>
            </g>
        </g>
    </g>
</svg>