<?xml version="1.0" encoding="UTF-8"?>
<svg width="56px" height="50px" viewBox="0 0 56 50" version="1.1" xmlns="http://www.w3.org/2000/svg" xmlns:xlink="http://www.w3.org/1999/xlink">
    <title>22A1FF4C-76D0-47C5-A7A2-A6E6D7A71C99</title>
    <g id="Pages" stroke="none" stroke-width="1" fill="none" fill-rule="evenodd">
        <g id="M---AM-Homepage" transform="translate(-250.000000, -123.000000)" fill-rule="nonzero">
            <g id="Hero-Copy" transform="translate(0.000000, 88.000000)">
                <g id="Content_Left" transform="translate(15.000000, 0.000000)">
                    <g id="imac" transform="translate(235.000000, 35.000000)">
                        <path d="M21.0894397,44.1719828 C20.9960129,44.9417026 20.5741379,45.7443966 19.9324353,46.1796336 L18.8772629,46.8953664 C20.3897629,46.8953664 34.0487069,46.8953664 36.2950431,46.8953664 L35.2398707,46.1796336 C34.5981681,45.7443966 34.1761853,44.9417026 34.0828664,44.171875 L33.5702586,39.8352371 L21.6020474,39.8352371 L21.0894397,44.1719828 Z" id="Path" fill="#CCCCCC"></path>
                        <path d="M24.4939655,44.6948276 L25.0065733,39.8352371 L21.6020474,39.8352371 L21.0894397,44.1719828 C20.9960129,44.9417026 20.5741379,45.7443966 19.9324353,46.1796336 L18.8773707,46.8953664 C21.3174569,46.8953664 20.9608836,46.8953664 23.397306,46.8953664 C24.0046336,46.3981681 24.403556,45.5297414 24.4939655,44.6948276 Z" id="Path" fill="#BABABA"></path>
                        <path d="M52.0344828,39.9462284 L3.13793103,39.9462284 C1.41206897,39.9462284 0,38.5341595 0,36.8082974 L0,3.19601293 C0,1.47015086 1.41206897,0.0580818966 3.13793103,0.0580818966 L52.0344828,0.0580818966 C53.7603448,0.0580818966 55.1724138,1.47015086 55.1724138,3.19601293 L55.1724138,36.8082974 C55.1724138,38.5341595 53.7603448,39.9462284 52.0344828,39.9462284 Z" id="Path" fill="#EFEFEF"></path>
                        <path d="M3.17198276,36.8082974 L3.17198276,3.19601293 C3.17198276,1.47015086 4.58405172,0.0580818966 6.30991379,0.0580818966 L3.13793103,0.0580818966 C1.41206897,0.0580818966 0,1.47015086 0,3.19601293 L0,36.8084052 C0,38.5342672 1.41206897,39.9463362 3.13793103,39.9463362 L6.30991379,39.9463362 C4.58405172,39.9463362 3.17198276,38.5341595 3.17198276,36.8082974 Z" id="Path" fill="#DDDDDD"></path>
                        <path d="M52.0344828,0.0580818966 L3.13793103,0.0580818966 C1.41206897,0.0580818966 0,1.47015086 0,3.19601293 L0,33.6088362 L55.1724138,33.6088362 L55.1724138,3.19601293 C55.1724138,1.47015086 53.7603448,0.0580818966 52.0344828,0.0580818966 Z" id="Path" fill="#666666"></path>
                        <path d="M0,3.19601293 L0,33.6088362 L3.171875,33.6088362 L3.171875,3.19601293 C3.171875,1.47015086 4.58394397,0.0580818966 6.30980603,0.0580818966 C3.03954741,0.0634698276 2.6012931,-0.0524784483 1.71487069,0.402478448 C0.699461207,0.923599138 0,1.98178879 0,3.19601293 Z" id="Path" fill="#535454"></path>
                        <path d="M51.4649784,30.4418103 L3.70743534,30.4418103 C3.41174569,30.4418103 3.17198276,30.2020474 3.17198276,29.9063578 L3.17198276,3.74321121 C3.17198276,3.44741379 3.41174569,3.20775862 3.70743534,3.20775862 L51.4649784,3.20775862 C51.7606681,3.20775862 52.000431,3.44752155 52.000431,3.74321121 L52.000431,29.90625 C52.000431,30.2020474 51.7607759,30.4418103 51.4649784,30.4418103 Z" id="Path" fill="#A4D9F4"></path>
                        <path d="M6.50247845,29.90625 L6.50247845,3.74321121 C6.50247845,3.44741379 6.74224138,3.20775862 7.03793103,3.20775862 L3.70743534,3.20775862 C3.41174569,3.20775862 3.17198276,3.44752155 3.17198276,3.74321121 L3.17198276,29.90625 C3.17198276,30.2019397 3.41174569,30.4417026 3.70743534,30.4417026 L7.03793103,30.4417026 C6.74224138,30.4417026 6.50247845,30.2020474 6.50247845,29.90625 Z" id="Path" fill="#7CC9E8"></path>
                        <path d="M37.853125,46.7842672 C32.0140086,46.7842672 23.1903017,46.7842672 17.3192888,46.7842672 C16.4482759,46.7842672 15.7357759,47.496875 15.7357759,48.3677802 L15.7357759,48.3677802 C15.7357759,49.2386853 16.4483836,49.9512931 17.3192888,49.9512931 C23.2746767,49.9512931 32.0398707,49.9512931 37.853125,49.9512931 C38.7240302,49.9512931 39.4366379,49.2386853 39.4366379,48.3677802 L39.4366379,48.3677802 C39.4366379,47.496875 38.7240302,46.7842672 37.853125,46.7842672 Z" id="Path" fill="#EFEFEF"></path>
                        <path d="M21.9419181,48.3678879 L21.9419181,48.3678879 C21.9419181,47.4969828 22.6545259,46.784375 23.525431,46.784375 C22.5353448,46.784375 18.8538793,46.784375 17.319181,46.784375 C16.4481681,46.784375 15.7356681,47.4969828 15.7356681,48.3678879 L15.7356681,48.3678879 C15.7356681,49.2387931 16.4482759,49.9514009 17.319181,49.9514009 C18.8438578,49.9514009 22.5210129,49.9514009 23.525431,49.9514009 C22.6545259,49.9514009 21.9419181,49.2387931 21.9419181,48.3678879 Z" id="Path" fill="#DDDDDD"></path>
                        <circle id="Oval" fill="#CCCCCC" cx="27.5862069" cy="36.7737069" r="1"></circle>
                        <path d="M3.17198276,3.74321121 L3.17198276,6.35743534 L52.0005388,6.35743534 L52.0005388,3.74321121 C52.0005388,3.44752155 51.7607759,3.20775862 51.4649784,3.20775862 L3.70743534,3.20775862 C3.41163793,3.20775862 3.17198276,3.44752155 3.17198276,3.74321121 Z" id="Path" fill="#70B5E8"></path>
                        <g id="Group" transform="translate(3.125000, 3.125000)" fill="#52A5D8">
                            <path d="M0.0469827586,3.23243534 L3.37747845,3.23243534 L3.37747845,0.618211207 C3.37747845,0.322413793 3.61724138,0.0827586207 3.91293103,0.0827586207 L0.582435345,0.0827586207 C0.315409483,0.0827586207 0.0957974138,0.27887931 0.055387931,0.534482759 C0.0384698276,0.641271552 0.0511853448,0.442025862 0.0469827586,3.23243534 Z" id="Path"></path>
                            <path d="M12.5926724,24.8667026 L10.3646552,24.8667026 C10.1604526,24.8667026 9.99331897,24.699569 9.99331897,24.4953664 L9.99331897,22.2673491 C9.99331897,22.0631466 10.1604526,21.8960129 10.3646552,21.8960129 L12.5926724,21.8960129 C12.796875,21.8960129 12.9640086,22.0631466 12.9640086,22.2673491 L12.9640086,24.4953664 C12.9640086,24.699569 12.796875,24.8667026 12.5926724,24.8667026 Z" id="Path"></path>
                        </g>
                        <path d="M26.1037716,27.9917026 L23.8757543,27.9917026 C23.6715517,27.9917026 23.5044181,27.824569 23.5044181,27.6203664 L23.5044181,25.3923491 C23.5044181,25.1881466 23.6715517,25.0210129 23.8757543,25.0210129 L26.1037716,25.0210129 C26.3079741,25.0210129 26.4751078,25.1881466 26.4751078,25.3923491 L26.4751078,27.6203664 C26.4751078,27.824569 26.3079741,27.9917026 26.1037716,27.9917026 Z" id="Path" fill="#898989"></path>
                        <path d="M36.4897629,27.9917026 L34.2617457,27.9917026 C34.0575431,27.9917026 33.8904095,27.824569 33.8904095,27.6203664 L33.8904095,25.3923491 C33.8904095,25.1881466 34.0575431,25.0210129 34.2617457,25.0210129 L36.4897629,25.0210129 C36.6939655,25.0210129 36.8610991,25.1881466 36.8610991,25.3923491 L36.8610991,27.6203664 C36.8610991,27.824569 36.6939655,27.9917026 36.4897629,27.9917026 Z" id="Path" fill="#52A5D8"></path>
                        <path d="M20.9106681,27.9917026 L18.6826509,27.9917026 C18.4784483,27.9917026 18.3113147,27.824569 18.3113147,27.6203664 L18.3113147,25.3923491 C18.3113147,25.1881466 18.4784483,25.0210129 18.6826509,25.0210129 L20.9106681,25.0210129 C21.1148707,25.0210129 21.2820043,25.1881466 21.2820043,25.3923491 L21.2820043,27.6203664 C21.2820043,27.824569 21.1149784,27.9917026 20.9106681,27.9917026 Z" id="Path" fill="#F94A46"></path>
                        <path d="M31.2967672,27.9917026 L29.06875,27.9917026 C28.8645474,27.9917026 28.6974138,27.824569 28.6974138,27.6203664 L28.6974138,25.3923491 C28.6974138,25.1881466 28.8645474,25.0210129 29.06875,25.0210129 L31.2967672,25.0210129 C31.5009698,25.0210129 31.6681034,25.1881466 31.6681034,25.3923491 L31.6681034,27.6203664 C31.6681034,27.824569 31.5009698,27.9917026 31.2967672,27.9917026 Z" id="Path" fill="#FFB70D"></path>
                        <path d="M41.6827586,27.9917026 L39.4547414,27.9917026 C39.2505388,27.9917026 39.0834052,27.824569 39.0834052,27.6203664 L39.0834052,25.3923491 C39.0834052,25.1881466 39.2505388,25.0210129 39.4547414,25.0210129 L41.6827586,25.0210129 C41.8869612,25.0210129 42.0540948,25.1881466 42.0540948,25.3923491 L42.0540948,27.6203664 C42.0540948,27.824569 41.887069,27.9917026 41.6827586,27.9917026 Z" id="Path" fill="#92B620"></path>
                    </g>
                </g>
            </g>
        </g>
    </g>
</svg>