<?xml version="1.0" encoding="UTF-8"?>
<svg width="50px" height="50px" viewBox="0 0 50 50" version="1.1" xmlns="http://www.w3.org/2000/svg" xmlns:xlink="http://www.w3.org/1999/xlink">
    <title>12BB01D7-04B0-478E-8A31-E94744829E0D</title>
    <defs>
        <path d="M21.99225,28.03225 L23.77725,23.67725 L28.00725,21.96725 L26.22225,26.32225 L21.99225,28.03225 Z M34.20725,15.79475 C33.52225,15.06975 32.44725,14.78975 31.45975,15.17975 L20.92725,19.43475 C20.30225,19.68725 19.80475,20.17975 19.54975,20.80475 L15.18725,31.44975 C14.81725,32.35225 15.03475,33.32725 15.63225,34.01975 C15.65225,34.04475 15.66725,34.07725 15.68975,34.10475 C15.72975,34.14725 15.77725,34.18225 15.82225,34.22475 C16.29225,34.70725 16.92975,34.99975 17.60475,34.99975 C17.91725,34.99975 18.23475,34.94225 18.53975,34.81975 L29.07225,30.56725 C29.69725,30.31225 30.19475,29.81975 30.44975,29.19475 L34.81225,18.54975 C35.21725,17.56475 34.93725,16.48475 34.20725,15.79475 L34.20725,15.79475 Z M25,45 C13.9725,45 5,36.0275 5,25 C5,13.9725 13.9725,5 25,5 C36.0275,5 45,13.9725 45,25 C45,36.0275 36.0275,45 25,45 M25,-5.68434189e-14 C11.215,-5.68434189e-14 0,11.215 0,25 C0,38.785 11.215,50 25,50 C38.785,50 50,38.785 50,25 C50,11.215 38.785,-5.68434189e-14 25,-5.68434189e-14" id="path-1"></path>
    </defs>
    <g id="Pages" stroke="none" stroke-width="1" fill="none" fill-rule="evenodd">
        <g id="M---Our-Approach" transform="translate(-135.000000, -536.000000)">
            <g id="27)-Icon/compass" transform="translate(135.000000, 536.000000)">
                <mask id="mask-2" fill="white">
                    <use xlink:href="#path-1"></use>
                </mask>
                <use id="🎨-Icon-Сolor" fill="#3333FF" xlink:href="#path-1"></use>
            </g>
        </g>
    </g>
</svg>