<?xml version="1.0" encoding="UTF-8"?>
<svg width="20px" height="16px" viewBox="0 0 20 16" version="1.1" xmlns="http://www.w3.org/2000/svg" xmlns:xlink="http://www.w3.org/1999/xlink">
    <title>F8949234-4916-4F65-A161-B46949EB7CB4</title>
    <defs>
        <path d="M17,14 L3,14 C2.449,14 2,13.552 2,13 L2,3.25 L9.4,8.8 C9.578,8.934 9.789,9 10,9 C10.211,9 10.422,8.934 10.6,8.8 L18,3.25 L18,13 C18,13.552 17.551,14 17,14 L17,14 Z M16.333,2 L10,6.75 L3.667,2 L16.333,2 Z M17,0 L3,0 C1.346,0 0,1.346 0,3 L0,13 C0,14.654 1.346,16 3,16 L17,16 C18.654,16 20,14.654 20,13 L20,3 C20,1.346 18.654,0 17,0 L17,0 Z" id="path-1"></path>
    </defs>
    <g id="Pages" stroke="none" stroke-width="1" fill="none" fill-rule="evenodd">
        <g id="M---AM-Building" transform="translate(-19.000000, -336.000000)">
            <g id="Icon/" transform="translate(19.000000, 336.000000)">
                <mask id="mask-2" fill="white">
                    <use xlink:href="#path-1"></use>
                </mask>
                <use id="🎨-Icon-Сolor" fill="#000033" xlink:href="#path-1"></use>
            </g>
        </g>
    </g>
</svg>