<?xml version="1.0" encoding="UTF-8"?>
<svg width="60px" height="60px" viewBox="0 0 60 60" version="1.1" xmlns="http://www.w3.org/2000/svg" xmlns:xlink="http://www.w3.org/1999/xlink">
    <title>3A010399-3E17-46EE-9131-FACD5861A07D</title>
    <g id="Case-Studies" stroke="none" stroke-width="1" fill="none" fill-rule="evenodd">
        <g id="D---Case-studies-GuideX" transform="translate(-442.000000, -3418.000000)">
            <g id="Explorer-Icon" transform="translate(442.000000, 3418.000000)">
                <circle id="Oval" fill="#1F28CF" cx="30" cy="30" r="30"></circle>
                <path d="M35.7088651,33.135564 C34.825802,32.5836495 34.2738875,31.645395 34.2186961,30.6519489 C34.9913763,29.54812 35.5432908,27.9475681 35.7088651,25.7951018 C35.7088651,25.7951018 35.7640566,25.7951018 35.7640566,25.7951018 C35.9296309,25.7399103 36.0952052,25.6295274 36.2055881,25.4639531 C36.2607796,25.3535702 37.3646085,22.3180407 35.0465678,19.8896171 C34.2738875,19.0617454 33.1700586,18.509831 31.9558468,18.2338737 C31.0727837,18.0682994 29.5274232,17.5715764 28.8651259,16.6885133 C28.6995516,16.5229389 28.5339772,16.4125561 28.3684029,16.4125561 C28.2028286,16.4125561 28.0372542,16.4677475 27.9268713,16.5781304 C27.8716799,16.6333218 27.1541911,17.516385 27.3197654,18.7305968 C26.9334253,18.7857882 26.3815109,18.6202139 25.9951707,18.4546395 C25.8295964,18.3442566 25.6088306,18.3994481 25.4432563,18.4546395 C25.277682,18.5650224 25.1672991,18.7305968 25.1672991,18.9513625 L25.1672991,19.9448086 C24.5050017,20.4415316 23.180407,21.8213177 24.1738531,25.077613 C24.2290445,25.2431873 24.3946188,25.4087616 24.5601932,25.4639531 C24.5601932,25.4639531 24.5601932,25.4639531 24.5601932,25.4639531 C24.6705761,27.6164195 25.277682,29.3273543 26.1055536,30.5415661 L26.0503622,30.5415661 C26.0503622,31.5902035 25.4984477,32.5836495 24.5601932,33.1907554 C21.3038979,35.122456 19.3721973,38.5443256 19.3721973,42.3525354 C19.3721973,42.683684 19.5929631,42.9044498 19.9241118,42.9044498 L40.3449465,42.9044498 C40.6760952,42.9044498 40.896861,42.683684 40.896861,42.3525354 C40.896861,38.5443256 38.9651604,35.122456 35.7088651,33.135564 Z M35.7640566,34.5153501 L33.2252501,38.0476026 L31.1279752,36.9437737 L34.8809934,33.9082442 C34.9913763,33.9634357 35.0465678,34.0186271 35.1569507,34.12901 C35.3777165,34.2393929 35.5432908,34.4049672 35.7640566,34.5153501 Z M30.1345291,37.6612625 L31.0175923,38.1027941 L31.0175923,41.8006209 L29.1962746,41.8006209 L29.1962746,38.1579855 L30.1345291,37.6612625 Z M30.0241463,31.8661607 C27.9268713,31.8661607 25.6640221,29.3825457 25.6088306,24.6912729 L27.5957227,22.6491894 C28.0372542,22.9251466 28.754743,23.3114867 29.748189,23.3114867 C30.6312522,23.3114867 31.5695067,22.980338 32.4525699,22.3732321 L34.6050362,24.9120386 C34.4946533,31.3694377 31.0727837,31.8661607 30.0241463,31.8661607 Z M25.9399793,20.7726802 C26.1055536,20.6622973 26.2159365,20.496723 26.271128,20.2759572 L26.271128,19.7240428 C27.4853398,20.0551914 28.2028286,19.6136599 28.25802,19.6136599 C28.4787858,19.503277 28.5891687,19.1721283 28.5339772,18.9513625 C28.3684029,18.5650224 28.4235943,18.1786823 28.5339772,17.9027251 C29.4170404,18.6754053 30.6864436,19.0617454 31.6798896,19.2825112 C32.7285271,19.503277 33.5563988,19.9448086 34.2186961,20.6071059 C35.322525,21.8213177 35.4880993,23.1459124 35.3777165,24.0289755 L33.0044843,21.2694032 C32.8941014,21.1590204 32.7285271,21.1038289 32.5629527,21.1038289 C32.4525699,21.1038289 32.342187,21.1590204 32.2318041,21.2142118 C31.4039324,21.8765091 30.5760607,22.2628493 29.748189,22.2628493 C28.6443601,22.2628493 27.9820628,21.6005519 27.9268713,21.6005519 C27.7061056,21.3797861 27.3749569,21.3797861 27.1541911,21.5453605 L25.0017247,23.7530183 C24.6153846,21.4349776 25.8847879,20.7726802 25.9399793,20.7726802 Z M30.0241463,32.9699897 C31.1279752,32.9699897 32.2869955,32.5836495 33.2804415,31.7557779 C33.4460159,32.2525009 33.7219731,32.7492239 34.0531218,33.1907554 L30.1345291,36.3366678 L26.2159365,33.135564 C26.6022766,32.6940324 26.8782339,32.1973094 26.9886168,31.645395 C27.9268713,32.5284581 28.9755088,32.9699897 30.0241463,32.9699897 Z M25.1121076,34.12901 C25.2224905,34.0738186 25.277682,34.0186271 25.3880648,33.9082442 L29.1410831,36.9437737 L27.0438082,38.0476026 L24.5050017,34.5153501 C24.7257675,34.4049672 24.8913418,34.2393929 25.1121076,34.12901 Z M23.6219386,35.2328389 L26.3815109,39.0962401 C26.4918938,39.2618144 26.6574681,39.3170059 26.8230424,39.3170059 C26.9334253,39.3170059 26.9886168,39.3170059 27.0989997,39.2618144 L28.1476371,38.7099 L28.1476371,41.8006209 L24.0082787,41.8006209 L24.0082787,40.5864091 C24.0082787,40.2552604 23.7875129,40.0344947 23.4563643,40.0344947 C23.1252156,40.0344947 22.9044498,40.2552604 22.9044498,40.5864091 L22.9044498,41.8006209 L20.4760262,41.8006209 C20.6416006,39.2618144 21.7454295,36.8885823 23.6219386,35.2328389 Z M37.3646085,41.8006209 L37.3646085,40.5864091 C37.3646085,40.2552604 37.1438427,40.0344947 36.812694,40.0344947 C36.4815454,40.0344947 36.2607796,40.2552604 36.2607796,40.5864091 L36.2607796,41.8006209 L32.1214212,41.8006209 L32.1214212,38.7099 L33.1700586,39.2618144 C33.2252501,39.3170059 33.335633,39.3170059 33.4460159,39.3170059 C33.6115902,39.3170059 33.7771645,39.2618144 33.8875474,39.0962401 L36.6471197,35.2328389 C38.5236288,36.9437737 39.6274577,39.2618144 39.7930321,41.8006209 L37.3646085,41.8006209 Z" id="Explorer" fill="#FFFFFF" fill-rule="nonzero"></path>
            </g>
        </g>
    </g>
</svg>