<?xml version="1.0" encoding="UTF-8"?>
<svg width="223px" height="223px" viewBox="0 0 223 223" version="1.1" xmlns="http://www.w3.org/2000/svg" xmlns:xlink="http://www.w3.org/1999/xlink">
    <title>A3BC74EF-ECC3-4DBB-B858-18236DD4488F</title>
    <g id="Case-Studies" stroke="none" stroke-width="1" fill="none" fill-rule="evenodd">
        <g id="D---Case-studies-GuideX" transform="translate(-815.000000, -1605.000000)">
            <g id="User-Icons" transform="translate(442.000000, 1605.000000)">
                <g id="Explorer-Icon" transform="translate(373.000000, 0.000000)">
                    <circle id="Oval" fill="#1F28CF" cx="111.5" cy="111.5" r="111.5"></circle>
                    <path d="M132.717949,123.153846 C129.435897,121.102564 127.384615,117.615385 127.179487,113.923077 C130.051282,109.820513 132.102564,103.871795 132.717949,95.8717949 C132.717949,95.8717949 132.923077,95.8717949 132.923077,95.8717949 C133.538462,95.6666667 134.153846,95.2564103 134.564103,94.6410256 C134.769231,94.2307692 138.871795,82.9487179 130.25641,73.9230769 C127.384615,70.8461538 123.282051,68.7948718 118.769231,67.7692308 C115.487179,67.1538462 109.74359,65.3076923 107.282051,62.025641 C106.666667,61.4102564 106.051282,61 105.435897,61 C104.820513,61 104.205128,61.2051282 103.794872,61.6153846 C103.589744,61.8205128 100.923077,65.1025641 101.538462,69.6153846 C100.102564,69.8205128 98.0512821,69.2051282 96.6153846,68.5897436 C96,68.1794872 95.1794872,68.3846154 94.5641026,68.5897436 C93.9487179,69 93.5384615,69.6153846 93.5384615,70.4358974 L93.5384615,74.1282051 C91.0769231,75.974359 86.1538462,81.1025641 89.8461538,93.2051282 C90.0512821,93.8205128 90.6666667,94.4358974 91.2820513,94.6410256 C91.2820513,94.6410256 91.2820513,94.6410256 91.2820513,94.6410256 C91.6923077,102.641026 93.9487179,109 97.025641,113.512821 L96.8205128,113.512821 C96.8205128,117.410256 94.7692308,121.102564 91.2820513,123.358974 C79.1794872,130.538462 72,143.25641 72,157.410256 C72,158.641026 72.8205128,159.461538 74.0512821,159.461538 L149.948718,159.461538 C151.179487,159.461538 152,158.641026 152,157.410256 C152,143.25641 144.820513,130.538462 132.717949,123.153846 Z M132.923077,128.282051 L123.487179,141.410256 L115.692308,137.307692 L129.641026,126.025641 C130.051282,126.230769 130.25641,126.435897 130.666667,126.846154 C131.487179,127.25641 132.102564,127.871795 132.923077,128.282051 Z M112,139.974359 L115.282051,141.615385 L115.282051,155.358974 L108.512821,155.358974 L108.512821,141.820513 L112,139.974359 Z M111.589744,118.435897 C103.794872,118.435897 95.3846154,109.205128 95.1794872,91.7692308 L102.564103,84.1794872 C104.205128,85.2051282 106.871795,86.6410256 110.564103,86.6410256 C113.846154,86.6410256 117.333333,85.4102564 120.615385,83.1538462 L128.615385,92.5897436 C128.205128,116.589744 115.487179,118.435897 111.589744,118.435897 Z M96.4102564,77.2051282 C97.025641,76.7948718 97.4358974,76.1794872 97.6410256,75.3589744 L97.6410256,73.3076923 C102.153846,74.5384615 104.820513,72.8974359 105.025641,72.8974359 C105.846154,72.4871795 106.25641,71.2564103 106.051282,70.4358974 C105.435897,69 105.641026,67.5641026 106.051282,66.5384615 C109.333333,69.4102564 114.051282,70.8461538 117.74359,71.6666667 C121.641026,72.4871795 124.717949,74.1282051 127.179487,76.5897436 C131.282051,81.1025641 131.897436,86.025641 131.487179,89.3076923 L122.666667,79.0512821 C122.25641,78.6410256 121.641026,78.4358974 121.025641,78.4358974 C120.615385,78.4358974 120.205128,78.6410256 119.794872,78.8461538 C116.717949,81.3076923 113.641026,82.7435897 110.564103,82.7435897 C106.461538,82.7435897 104,80.2820513 103.794872,80.2820513 C102.974359,79.4615385 101.74359,79.4615385 100.923077,80.0769231 L92.9230769,88.2820513 C91.4871795,79.6666667 96.2051282,77.2051282 96.4102564,77.2051282 Z M111.589744,122.538462 C115.692308,122.538462 120,121.102564 123.692308,118.025641 C124.307692,119.871795 125.333333,121.717949 126.564103,123.358974 L112,135.051282 L97.4358974,123.153846 C98.8717949,121.512821 99.8974359,119.666667 100.307692,117.615385 C103.794872,120.897436 107.692308,122.538462 111.589744,122.538462 Z M93.3333333,126.846154 C93.7435897,126.641026 93.9487179,126.435897 94.3589744,126.025641 L108.307692,137.307692 L100.512821,141.410256 L91.0769231,128.282051 C91.8974359,127.871795 92.5128205,127.25641 93.3333333,126.846154 Z M87.7948718,130.948718 L98.0512821,145.307692 C98.4615385,145.923077 99.0769231,146.128205 99.6923077,146.128205 C100.102564,146.128205 100.307692,146.128205 100.717949,145.923077 L104.615385,143.871795 L104.615385,155.358974 L89.2307692,155.358974 L89.2307692,150.846154 C89.2307692,149.615385 88.4102564,148.794872 87.1794872,148.794872 C85.9487179,148.794872 85.1282051,149.615385 85.1282051,150.846154 L85.1282051,155.358974 L76.1025641,155.358974 C76.7179487,145.923077 80.8205128,137.102564 87.7948718,130.948718 Z M138.871795,155.358974 L138.871795,150.846154 C138.871795,149.615385 138.051282,148.794872 136.820513,148.794872 C135.589744,148.794872 134.769231,149.615385 134.769231,150.846154 L134.769231,155.358974 L119.384615,155.358974 L119.384615,143.871795 L123.282051,145.923077 C123.487179,146.128205 123.897436,146.128205 124.307692,146.128205 C124.923077,146.128205 125.538462,145.923077 125.948718,145.307692 L136.205128,130.948718 C143.179487,137.307692 147.282051,145.923077 147.897436,155.358974 L138.871795,155.358974 Z" id="Explorer" fill="#FFFFFF" fill-rule="nonzero"></path>
                </g>
            </g>
        </g>
    </g>
</svg>