<?xml version="1.0" encoding="UTF-8"?>
<svg width="15px" height="19px" viewBox="0 0 15 19" version="1.1" xmlns="http://www.w3.org/2000/svg" xmlns:xlink="http://www.w3.org/1999/xlink">
    <title>EA8F273E-165B-45F5-94AE-46F5C24F08D8</title>
    <defs>
        <path d="M3.4951,6.5165 C1.4631,8.7155 1.5061,12.2015 3.6241,14.3605 C4.6581,15.4175 6.0321,16.0005 7.4961,16.0015 L7.5011,16.0015 C8.9681,16.0015 10.3471,15.4185 11.3861,14.3605 C13.5421,12.1625 13.5381,8.5875 11.3771,6.3925 L8.3911,3.3415 C8.0891,5.8235 7.1581,8.0015 5.5001,8.0015 C4.9921,8.0015 4.1641,7.7755 3.4951,6.5165 L3.4951,6.5165 Z M7.5011,18.0015 L7.4941,18.0015 C5.4881,17.9995 3.6061,17.2045 2.1951,15.7595 C-0.7189,12.7895 -0.7229,7.9565 2.1861,4.9915 L3.1691,3.9975 C3.4231,3.7435 3.7921,3.6455 4.1411,3.7365 C4.4881,3.8305 4.7581,4.1035 4.8481,4.4515 C5.0781,5.3405 5.3521,5.7775 5.5031,5.9435 C5.8581,5.5695 6.5001,4.0585 6.5001,1.5015 C6.5001,1.3545 6.5001,1.2155 6.4921,1.0765 C6.4731,0.7815 6.5861,0.4925 6.8001,0.2885 C7.1971,-0.0885 7.8331,-0.0885 8.2141,0.3035 L12.8041,4.9925 C15.7241,7.9565 15.7291,12.7895 12.8141,15.7605 C11.3951,17.2065 9.5091,18.0015 7.5011,18.0015 L7.5011,18.0015 Z" id="path-1"></path>
    </defs>
    <g id="Pages" stroke="none" stroke-width="1" fill="none" fill-rule="evenodd">
        <g id="M---Positions" transform="translate(-19.000000, -406.000000)">
            <g id="Hero-Copy" transform="translate(15.000000, 76.000000)">
                <g id="Bullet-Points" transform="translate(0.000000, 249.000000)">
                    <g id="Icon/fire" transform="translate(4.000000, 81.000000)">
                        <mask id="mask-2" fill="white">
                            <use xlink:href="#path-1"></use>
                        </mask>
                        <use id="🎨-Icon-Сolor" fill="#3333FF" xlink:href="#path-1"></use>
                    </g>
                </g>
            </g>
        </g>
    </g>
</svg>