<?xml version="1.0" encoding="UTF-8"?>
<svg width="48px" height="66px" viewBox="0 0 48 66" version="1.1" xmlns="http://www.w3.org/2000/svg" xmlns:xlink="http://www.w3.org/1999/xlink">
    <title>514FF5AC-6DEE-4042-96F5-B137891EBDD7</title>
    <defs>
        <path d="M9.04070833,35.33275 L24.0002917,35.33275 C24.828625,35.33275 25.6190417,35.6856667 26.1702917,36.3010833 C26.7215417,36.9165 26.9869583,37.739 26.8994583,38.5615 L25.589875,50.6656667 L38.959875,30.6660833 L24.0002917,30.6660833 C23.1719583,30.6660833 22.3815417,30.3131667 21.8302917,29.69775 C21.276125,29.0823333 21.0107083,28.2598333 21.101125,27.4373333 L22.4107083,15.3360833 L9.04070833,35.33275 Z M21.407375,65.08275 C21.074875,65.08275 20.7394583,65.0273333 20.409875,64.90775 C19.149875,64.4469167 18.362375,63.1869167 18.5082083,61.854 L20.751125,41.1660833 L3.583625,41.1660833 C2.507375,41.1660833 1.518625,40.574 1.011125,39.6260833 C0.503625,38.67525 0.561958333,37.5231667 1.159875,36.62775 L24.1694583,2.214 C24.9132083,1.094 26.324875,0.633166667 27.5877917,1.094 C28.8507083,1.55191667 29.6382083,2.81483333 29.492375,4.14775 L27.2494583,24.83275 L44.4169583,24.83275 C45.4932083,24.83275 46.4819583,25.42775 46.9894583,26.3756667 C47.4969583,27.3265 47.438625,28.4756667 46.8407083,29.3710833 L23.831125,63.78775 C23.279875,64.6160833 22.3582083,65.08275 21.407375,65.08275 L21.407375,65.08275 Z" id="path-1"></path>
    </defs>
    <g id="Dev-Assets" stroke="none" stroke-width="1" fill="none" fill-rule="evenodd">
        <g id="Dev-Notes---Icons-&amp;-Assets" transform="translate(-177.000000, -329.000000)">
            <g id="27)-Icon/bar-chart" transform="translate(177.000000, 329.000000)">
                <mask id="mask-2" fill="white">
                    <use xlink:href="#path-1"></use>
                </mask>
                <use id="🎨-Icon-Сolor" fill="#3333FF" xlink:href="#path-1"></use>
            </g>
        </g>
    </g>
</svg>