<?xml version="1.0" encoding="UTF-8"?>
<svg width="18px" height="18px" viewBox="0 0 18 18" version="1.1" xmlns="http://www.w3.org/2000/svg" xmlns:xlink="http://www.w3.org/1999/xlink">
    <title>EB93A2C1-283D-48A4-BD9F-7C789B61344B</title>
    <defs>
        <path d="M14.5,12 L14.5,16 L10,16 L10,12 L14.5,12 Z M8,12 L8,16 L3.5,16 L3.5,12 L8,12 Z M2,6.2 C2,6.117 2.013,6.05 2.026,6 L5.143,6 L8,6 L8,10 L2.026,10 C2.013,9.95 2,9.883 2,9.8 L2,6.2 Z M4,3 C4,2.448 4.513,2 5.143,2 C6.4,2 7.17,3.09 7.594,4 L5.143,4 C4.513,4 4,3.552 4,3 L4,3 Z M12.857,2 C13.487,2 14,2.448 14,3 C14,3.552 13.487,4 12.857,4 L10.4,4 C10.82,3.09 11.588,2 12.857,2 L12.857,2 Z M16,6.2 L16,9.8 C16,9.883 15.987,9.95 15.974,10 L10,10 L10,6 L12.857,6 L15.974,6 C15.987,6.05 16,6.117 16,6.2 L16,6.2 Z M16.2,4 L15.807,4 C15.925,3.686 16,3.353 16,3 C16,1.346 14.59,0 12.857,0 C10.935,0 9.729,1.199 9,2.397 C8.271,1.199 7.065,0 5.143,0 C3.41,0 2,1.346 2,3 C2,3.353 2.076,3.686 2.193,4 L1.8,4 C0.791,4 0,4.967 0,6.2 L0,9.8 C0,10.907 0.64,11.793 1.5,11.964 L1.5,16.333 C1.5,17.252 2.313,18 3.312,18 L14.687,18 C15.687,18 16.5,17.252 16.5,16.333 L16.5,11.964 C17.36,11.793 18,10.907 18,9.8 L18,6.2 C18,4.967 17.209,4 16.2,4 L16.2,4 Z" id="path-1"></path>
    </defs>
    <g id="Pages" stroke="none" stroke-width="1" fill="none" fill-rule="evenodd">
        <g id="M---Positions" transform="translate(-18.000000, -446.000000)">
            <g id="Hero-Copy" transform="translate(15.000000, 76.000000)">
                <g id="Bullet-Points" transform="translate(0.000000, 249.000000)">
                    <g id="Icon/gift" transform="translate(3.000000, 121.000000)">
                        <mask id="mask-2" fill="white">
                            <use xlink:href="#path-1"></use>
                        </mask>
                        <use id="🎨-Icon-Сolor" fill="#3333FF" xlink:href="#path-1"></use>
                    </g>
                </g>
            </g>
        </g>
    </g>
</svg>