<?xml version="1.0" encoding="UTF-8"?>
<svg width="20px" height="20px" viewBox="0 0 20 20" version="1.1" xmlns="http://www.w3.org/2000/svg" xmlns:xlink="http://www.w3.org/1999/xlink">
    <title>0D44D31D-918A-41B5-A1AB-570C41BFF762</title>
    <defs>
        <path d="M14.8887,16.3184 C14.7167,15.8854 14.4727,15.5074 14.2587,15.1844 C14.1507,15.0224 14.0397,14.8574 13.9427,14.6874 C13.5537,14.0114 13.6877,13.7374 14.3187,12.6804 L14.4207,12.5074 C14.9317,11.6464 14.9597,10.8204 14.9857,10.0924 C14.9977,9.7344 15.0097,9.3974 15.0787,9.0804 C15.2397,8.3484 16.7867,8.1534 17.7457,8.0384 C17.9067,8.6674 17.9997,9.3224 17.9997,10.0004 C17.9997,12.5694 16.7777,14.8534 14.8887,16.3184 M2.9617,13.7994 C3.5977,13.9614 4.2867,14.0734 4.9877,14.0734 C6.0677,14.0734 7.1707,13.8094 8.1247,13.0624 C9.8407,11.7204 9.8407,10.0044 9.8407,8.6244 C9.8407,7.7324 9.8407,6.9634 10.2127,6.2804 C10.4127,5.9144 10.8387,5.6604 11.3317,5.3654 C11.6337,5.1844 11.9467,4.9984 12.2467,4.7624 C12.8897,4.2594 13.3677,3.6124 13.6637,2.8964 C15.0637,3.6214 16.2237,4.7444 16.9897,6.1194 C15.5617,6.3174 13.5347,6.7854 13.1257,8.6524 C13.0177,9.1464 13.0007,9.6114 12.9877,10.0224 C12.9667,10.6054 12.9507,11.0664 12.7007,11.4884 L12.6007,11.6564 C11.9537,12.7394 11.2217,13.9674 12.2087,15.6844 C12.3277,15.8924 12.4607,16.0924 12.5917,16.2914 C12.9357,16.8074 13.1047,17.0924 13.1057,17.3724 C12.1507,17.7764 11.1007,18.0004 9.9997,18.0004 C6.9627,18.0004 4.3167,16.2984 2.9617,13.7994 M9.9997,2.0004 C10.6157,2.0004 11.2107,2.0764 11.7867,2.2084 C11.6177,2.5804 11.3567,2.9194 11.0127,3.1884 C10.7947,3.3604 10.5497,3.5034 10.3067,3.6484 C9.6557,4.0364 8.9187,4.4764 8.4567,5.3224 C7.8407,6.4524 7.8407,7.6064 7.8407,8.6244 C7.8407,9.9794 7.7967,10.7804 6.8927,11.4874 C5.5237,12.5604 3.4287,11.9614 2.1327,11.4164 C2.0507,10.9554 1.9997,10.4834 1.9997,10.0004 C1.9997,5.5894 5.5887,2.0004 9.9997,2.0004 M9.9997,0.0004 C4.4857,0.0004 -0.0003,4.4864 -0.0003,10.0004 C-0.0003,15.5134 4.4857,20.0004 9.9997,20.0004 C15.5137,20.0004 19.9997,15.5134 19.9997,10.0004 C19.9997,4.4864 15.5137,0.0004 9.9997,0.0004" id="path-1"></path>
    </defs>
    <g id="Dev-Assets" stroke="none" stroke-width="1" fill="none" fill-rule="evenodd">
        <g id="Dev-Notes---Icons-&amp;-Assets" transform="translate(-362.000000, -265.000000)">
            <g id="Icon/globe" transform="translate(362.000000, 265.000000)">
                <mask id="mask-2" fill="white">
                    <use xlink:href="#path-1"></use>
                </mask>
                <use id="🎨-Icon-Сolor" fill="#3333FF" xlink:href="#path-1"></use>
            </g>
        </g>
    </g>
</svg>