<?xml version="1.0" encoding="UTF-8"?>
<svg width="50px" height="50px" viewBox="0 0 50 50" version="1.1" xmlns="http://www.w3.org/2000/svg" xmlns:xlink="http://www.w3.org/1999/xlink">
    <title>EEA13B8D-3641-4673-A781-2DA221F084CA</title>
    <defs>
        <path d="M37.22175,40.796 C36.79175,39.7135 36.18175,38.7685 35.64675,37.961 C35.37675,37.556 35.09925,37.1435 34.85675,36.7185 C33.88425,35.0285 34.21925,34.3435 35.79675,31.701 L36.05175,31.2685 C37.32925,29.116 37.39925,27.051 37.46425,25.231 C37.49425,24.336 37.52425,23.4935 37.69675,22.701 C38.09925,20.871 41.96675,20.3835 44.36425,20.096 C44.76675,21.6685 44.99925,23.306 44.99925,25.001 C44.99925,31.4235 41.94425,37.1335 37.22175,40.796 M7.40425,34.4985 C8.99425,34.9035 10.71675,35.1835 12.46925,35.1835 C15.16925,35.1835 17.92675,34.5235 20.31175,32.656 C24.60175,29.301 24.60175,25.011 24.60175,21.561 C24.60175,19.331 24.60175,17.4085 25.53175,15.701 C26.03175,14.786 27.09675,14.151 28.32925,13.4135 C29.08425,12.961 29.86675,12.496 30.61675,11.906 C32.22425,10.6485 33.41925,9.031 34.15925,7.241 C37.65925,9.0535 40.55925,11.861 42.47425,15.2985 C38.90425,15.7935 33.83675,16.9635 32.81425,21.631 C32.54425,22.866 32.50175,24.0285 32.46925,25.056 C32.41675,26.5135 32.37675,27.666 31.75175,28.721 L31.50175,29.141 C29.88425,31.8485 28.05425,34.9185 30.52175,39.211 C30.81925,39.731 31.15175,40.231 31.47925,40.7285 C32.33925,42.0185 32.76175,42.731 32.76425,43.431 C30.37675,44.441 27.75175,45.001 24.99925,45.001 C17.40675,45.001 10.79175,40.746 7.40425,34.4985 M24.99925,5.001 C26.53925,5.001 28.02675,5.191 29.46675,5.521 C29.04425,6.451 28.39175,7.2985 27.53175,7.971 C26.98675,8.401 26.37425,8.7585 25.76675,9.121 C24.13925,10.091 22.29675,11.191 21.14175,13.306 C19.60175,16.131 19.60175,19.016 19.60175,21.561 C19.60175,24.9485 19.49175,26.951 17.23175,28.7185 C13.80925,31.401 8.57175,29.9035 5.33175,28.541 C5.12675,27.3885 4.99925,26.2085 4.99925,25.001 C4.99925,13.9735 13.97175,5.001 24.99925,5.001 M24.99925,0.001 C11.21425,0.001 -0.000749999999,11.216 -0.000749999999,25.001 C-0.000749999999,38.7835 11.21425,50.001 24.99925,50.001 C38.78425,50.001 49.99925,38.7835 49.99925,25.001 C49.99925,11.216 38.78425,0.001 24.99925,0.001" id="path-1"></path>
    </defs>
    <g id="Pages" stroke="none" stroke-width="1" fill="none" fill-rule="evenodd">
        <g id="M---Careers" transform="translate(-20.000000, -888.000000)">
            <g id="Section-2:-Our-Perks" transform="translate(15.000000, 883.000000)">
                <g id="27)-Icon/globe-2" transform="translate(5.000000, 5.000000)">
                    <mask id="mask-2" fill="white">
                        <use xlink:href="#path-1"></use>
                    </mask>
                    <use id="🎨-Icon-Сolor" fill="#3333FF" xlink:href="#path-1"></use>
                </g>
            </g>
        </g>
    </g>
</svg>