<?xml version="1.0" encoding="UTF-8"?>
<svg width="223px" height="223px" viewBox="0 0 223 223" version="1.1" xmlns="http://www.w3.org/2000/svg" xmlns:xlink="http://www.w3.org/1999/xlink">
    <title>ADA6DFA6-9FBD-41D5-AD3E-0EE5F08A53C7</title>
    <g id="Case-Studies" stroke="none" stroke-width="1" fill="none" fill-rule="evenodd">
        <g id="D---Case-studies-GuideX" transform="translate(-442.000000, -1605.000000)">
            <g id="Guide-Icon" transform="translate(442.000000, 1605.000000)">
                <circle id="Oval" fill="#1F28CF" cx="111.5" cy="111.5" r="111.5"></circle>
                <g transform="translate(62.000000, 62.000000)" fill="#FFFFFF" fill-rule="nonzero" id="Group">
                    <g>
                        <path d="M61.661,60.479 C58.312,58.312 56.145,54.963 55.948,51.023 C58.706,47.083 60.676,41.961 61.464,34.869 C66.389,32.702 69.738,29.747 69.738,25.807 C69.738,21.473 65.601,17.927 58.312,15.563 C58.115,14.381 57.721,13.199 57.524,12.017 C57.524,12.017 55.16,0.591 41.173,3.49942297e-15 C41.173,3.49942297e-15 41.173,3.49942297e-15 41.173,3.49942297e-15 C28.565,3.49942297e-15 24.822,11.82 24.822,11.82 C24.428,13.002 24.034,14.184 23.837,15.366 C16.745,17.73 12.608,21.276 12.608,25.413 C12.608,29.156 15.563,32.111 20.291,34.278 C21.079,40.976 23.049,46.295 25.807,50.235 C25.807,54.372 23.64,57.918 20.094,60.085 C7.88,67.768 0.591,80.573 0.591,94.757 C0.591,95.939 1.379,96.727 2.561,96.727 L79.194,96.727 C80.376,96.727 81.164,95.939 81.164,94.757 C81.164,80.573 73.875,67.768 61.661,60.479 Z M40.779,68.359 L27.383,57.918 C27.383,57.918 27.383,57.918 27.383,57.918 C27.974,56.933 28.565,55.751 28.959,54.569 C32.702,57.918 36.839,59.494 40.582,59.494 C44.719,59.494 49.053,58.115 52.796,54.766 C53.19,55.948 53.781,57.13 54.372,58.312 L40.779,68.359 Z M25.019,60.873 L25.216,60.676 C25.216,60.676 25.216,60.676 25.216,60.676 L36.445,69.541 L31.717,70.329 L31.52,68.556 C31.323,67.768 30.732,67.177 29.747,67.177 L25.019,67.177 L25.019,60.873 C25.019,61.07 25.019,61.07 25.019,60.873 Z M56.539,61.07 C56.539,61.07 56.539,61.07 56.539,61.07 L56.539,61.07 L56.736,66.98 L52.008,66.98 C51.22,66.98 50.432,67.571 50.235,68.359 L49.841,70.132 L45.113,69.344 L56.539,61.07 Z M28.762,12.805 C28.762,12.805 30.929,4.334 41.37,4.334 C41.37,4.334 41.37,4.334 41.37,4.334 C52.008,4.334 53.584,12.608 53.584,12.608 C54.569,16.351 55.357,20.685 55.357,23.049 C55.357,24.231 50.629,26.595 41.567,26.595 C32.899,26.595 27.58,24.428 27.383,22.852 C26.989,20.882 27.58,16.548 28.762,12.805 Z M16.745,25.61 C16.745,23.64 19.306,21.473 23.443,19.897 C23.246,21.276 23.246,22.458 23.443,23.246 C23.837,28.565 33.096,30.535 41.567,30.535 C50.235,30.535 59.297,28.565 59.297,23.049 C59.297,22.261 59.297,21.079 59.1,19.7 C63.237,21.276 65.995,23.443 65.995,25.413 C65.995,29.55 55.554,34.081 41.37,34.081 C26.989,34.475 16.745,29.747 16.745,25.61 Z M24.625,36.051 C29.55,37.627 35.46,38.415 41.173,38.415 C46.689,38.415 52.402,37.627 57.327,36.248 C55.554,48.462 49.25,55.554 40.582,55.554 C33.884,55.554 26.595,48.856 24.625,36.051 Z M13.396,70.92 L15.957,67.965 C17.73,66.586 19.7,65.207 21.473,64.025 L21.473,68.753 C21.473,69.738 22.261,70.526 23.246,70.526 L28.171,70.526 L28.565,72.693 C28.762,73.481 29.55,74.072 30.338,74.072 C30.535,74.072 30.535,74.072 30.732,74.072 L39.203,72.496 L39.203,92.59 L4.531,92.59 C4.925,84.513 8.274,77.027 13.396,70.92 Z M42.552,92.787 L42.552,72.693 L51.023,74.269 C51.22,74.269 51.22,74.269 51.417,74.269 C52.205,74.269 52.993,73.678 53.19,72.89 L53.584,70.723 L58.509,70.723 C59.494,70.723 60.282,69.935 60.282,68.95 L60.282,64.419 C62.252,65.601 64.025,66.783 65.601,68.162 L68.556,71.117 C73.875,77.224 77.027,84.71 77.421,92.984 L42.552,92.984 L42.552,92.787 Z" id="Shape"></path>
                        <path d="M31.323,78.209 L17.73,78.209 C16.745,78.209 15.957,78.997 15.957,79.982 L15.957,84.316 C15.957,84.907 16.351,85.498 16.745,85.892 L23.64,90.029 C23.837,90.226 24.231,90.226 24.625,90.226 C25.019,90.226 25.216,90.226 25.61,90.029 L32.505,85.892 C33.096,85.498 33.293,84.907 33.293,84.316 L33.293,79.982 C33.096,78.997 32.308,78.209 31.323,78.209 Z M29.55,83.134 L24.428,86.089 L19.306,83.134 L19.306,81.755 L29.55,81.755 L29.55,83.134 Z" id="Shape"></path>
                        <path d="M64.222,78.209 L50.629,78.209 C49.644,78.209 48.856,78.997 48.856,79.982 L48.856,84.316 C48.856,84.907 49.25,85.498 49.644,85.892 L56.539,90.029 C56.736,90.226 57.13,90.226 57.524,90.226 C57.918,90.226 58.115,90.226 58.509,90.029 L65.404,85.892 C65.995,85.498 66.192,84.907 66.192,84.316 L66.192,79.982 C65.995,78.997 65.207,78.209 64.222,78.209 Z M62.449,83.134 L57.327,86.089 L52.205,83.134 L52.205,81.755 L62.449,81.755 L62.449,83.134 Z" id="Shape"></path>
                    </g>
                    <g transform="translate(72.890000, 9.850000)">
                        <path d="M2.561,68.556 C1.379,68.556 0.591,67.768 0.591,66.586 L0.591,1.97 C0.591,0.788 1.379,0 2.561,0 C3.743,0 4.531,0.788 4.531,1.97 L4.531,68.359 C4.531,69.344 3.546,68.556 2.561,68.556 Z" id="Path"></path>
                        <path d="M2.561,25.807 C2.167,25.807 1.773,25.61 1.379,25.413 C0.788,25.019 0.591,24.428 0.591,23.837 L0.591,4.334 C0.591,3.743 0.985,3.152 1.379,2.758 C1.773,2.364 2.561,2.364 3.152,2.561 L27.58,12.214 C28.368,12.608 28.762,13.199 28.762,13.987 C28.762,14.775 28.171,15.563 27.58,15.76 L3.349,25.61 C2.955,25.807 2.758,25.807 2.561,25.807 Z M4.531,7.289 L4.531,21.079 L21.473,14.184 L4.531,7.289 Z" id="Shape"></path>
                    </g>
                </g>
            </g>
        </g>
    </g>
</svg>