<?xml version="1.0" encoding="UTF-8"?>
<svg width="51px" height="50px" viewBox="0 0 51 50" version="1.1" xmlns="http://www.w3.org/2000/svg" xmlns:xlink="http://www.w3.org/1999/xlink">
    <title>BC555A9E-33BA-40CF-B9FF-E75ECAD9FE8F</title>
    <g id="Dev-Assets" stroke="none" stroke-width="1" fill="none" fill-rule="evenodd">
        <g id="Dev-Notes---UX-Features" transform="translate(-251.000000, -3895.000000)" fill-rule="nonzero">
            <g id="ipad" transform="translate(251.602101, 3895.000000)">
                <path d="M3.01806641,0 C1.35810547,0 0,1.35810547 0,3.01806641 L0,46.9819336 C0,48.6418945 1.35810547,50 3.01806641,50 L17.0512695,50 L17.0512695,0 L3.01806641,0 Z" id="Path" fill="#EFEFEF"></path>
                <path d="M2.92792969,46.9819336 L2.92792969,3.01806641 C2.92792969,1.35810547 4.28603516,0 5.94599609,0 L3.01806641,0 C1.35810547,0 0,1.35810547 0,3.01806641 L0,46.9819336 C0,48.6418945 1.35810547,50 3.01806641,50 L5.94599609,50 C4.28603516,50 2.92792969,48.6418945 2.92792969,46.9819336 Z" id="Path" fill="#DDDDDD"></path>
                <path d="M46.9819336,50 L17.0513672,50 C15.3914063,50 14.0333008,48.6418945 14.0333008,46.9819336 L14.0333008,3.01806641 C14.0333008,1.35810547 15.3914063,0 17.0513672,0 L46.9819336,0 C48.6418945,0 50,1.35810547 50,3.01806641 L50,46.9819336 C50,48.6418945 48.6418945,50 46.9819336,50 Z" id="Path" fill="#535454"></path>
                <path d="M16.6839844,46.9819336 L16.6839844,3.01806641 C16.6839844,1.35810547 18.0420898,0 19.7020508,0 L17.0513672,0 C15.3914063,0 14.0333008,1.35810547 14.0333008,3.01806641 L14.0333008,46.9819336 C14.0333008,48.6418945 15.3914063,50 17.0513672,50 L19.7020508,50 C18.0420898,50 16.6839844,48.6418945 16.6839844,46.9819336 Z" id="Path" fill="#444443"></path>
                <path d="M46.6386719,4.41787109 L17.3946289,4.41787109 C17.0021484,4.41787109 16.6839844,4.73603516 16.6839844,5.12851563 L16.6839844,42.7553711 C16.6839844,43.1478516 17.0021484,43.4660156 17.3946289,43.4660156 L46.6386719,43.4660156 C47.0311523,43.4660156 47.3493164,43.1478516 47.3493164,42.7553711 L47.3493164,5.12851563 C47.3493164,4.73603516 47.0310547,4.41787109 46.6386719,4.41787109 Z" id="Path" fill="#A4D9F4"></path>
                <path d="M19.7020508,42.7553711 L19.7020508,5.12851563 C19.7020508,4.73603516 20.0202148,4.41787109 20.4126953,4.41787109 L17.3946289,4.41787109 C17.0021484,4.41787109 16.6839844,4.73603516 16.6839844,5.12851563 L16.6839844,42.7553711 C16.6839844,43.1478516 17.0021484,43.4660156 17.3946289,43.4660156 L20.4126953,43.4660156 C20.0202148,43.4660156 19.7020508,43.1478516 19.7020508,42.7553711 Z" id="Path" fill="#7CC9E8"></path>
                <g id="Group" transform="translate(2.832031, 2.929688)" fill="#666666">
                    <path d="M29.1845703,45.9967773 C27.9917969,45.9967773 27.0214844,45.0264648 27.0214844,43.8336914 C27.0214844,42.640918 27.9918945,41.6706055 29.1845703,41.6706055 C30.3772461,41.6706055 31.3476562,42.640918 31.3476562,43.8336914 C31.3476562,45.0264648 30.3773437,45.9967773 29.1845703,45.9967773 Z M29.1845703,43.1796875 C28.8240234,43.1796875 28.5305664,43.4730469 28.5305664,43.8336914 C28.5305664,44.1942383 28.8239258,44.4876953 29.1845703,44.4876953 C29.5451172,44.4876953 29.8385742,44.1943359 29.8385742,43.8336914 C29.8385742,43.4731445 29.5452148,43.1796875 29.1845703,43.1796875 Z" id="Shape"></path>
                    <circle id="Oval" cx="1.50488281" cy="1.48828125" r="1.40849609"></circle>
                </g>
                <path d="M4.33652344,4.41787109 C4.07597656,3.96660156 4.09472656,3.43173828 4.33710938,3.01044814 C4.09746094,3.01015625 3.8546875,3.06962891 3.63222656,3.19804688 C2.95849609,3.58701172 2.72773438,4.4484375 3.11669922,5.12216797 C3.50566406,5.79589844 4.36708984,6.02666016 5.04082031,5.63769531 C5.26328125,5.50927734 5.43623047,5.32871094 5.55576172,5.12099609 C5.06962891,5.1203125 4.59697266,4.86914062 4.33652344,4.41787109 Z" id="Path" fill="#535454"></path>
                <path d="M32.0163086,3.04833984 C31.9669922,3.04833984 31.9176758,3.04335938 31.8694336,3.03320312 C31.8210937,3.02412109 31.7739258,3.00908203 31.7275391,2.98994141 C31.6823242,2.971875 31.6390625,2.94863281 31.5977539,2.92050781 C31.5564453,2.89335938 31.5182617,2.86210938 31.4830078,2.82695313 C31.4477539,2.79277344 31.4166016,2.75341797 31.3894531,2.71230469 C31.3623047,2.67197266 31.3391602,2.62773438 31.3200195,2.58251953 C31.3008789,2.53720703 31.2868164,2.48886719 31.2767578,2.44160156 C31.2666992,2.39228516 31.2617188,2.34306641 31.2617188,2.29375 C31.2617188,2.24443359 31.2667969,2.19511719 31.2767578,2.14580078 C31.2868164,2.09853516 31.3008789,2.05029297 31.3200195,2.00498047 C31.3391602,1.95966797 31.3623047,1.91542969 31.3894531,1.87519531 C31.4166016,1.83291016 31.4478516,1.79472656 31.4830078,1.76054688 C31.5182617,1.72529297 31.5564453,1.69414063 31.5977539,1.66591797 C31.6389648,1.63876953 31.6822266,1.615625 31.7275391,1.59648438 C31.7738281,1.57841797 31.8210938,1.56337891 31.8694336,1.55419922 C32.1139648,1.50390625 32.3754883,1.58447266 32.5505859,1.76054688 C32.5847656,1.79472656 32.6169922,1.83291016 32.6441406,1.87519531 C32.6712891,1.91552734 32.6944336,1.95966797 32.7135742,2.00498047 C32.7327148,2.05029297 32.7467773,2.09853516 32.7568359,2.14580078 C32.765918,2.19511719 32.7708984,2.24443359 32.7708984,2.29375 C32.7708984,2.34306641 32.765918,2.39228516 32.7568359,2.44160156 C32.7467773,2.48886719 32.7327148,2.53720703 32.7135742,2.58251953 C32.6944336,2.62773438 32.6712891,2.67207031 32.6441406,2.71230469 C32.6169922,2.75341797 32.5847656,2.79277344 32.5505859,2.82695313 C32.409668,2.96787109 32.2155273,3.04833984 32.0163086,3.04833984 Z" id="Path" fill="#666666"></path>
                <path d="M46.6386719,4.41787109 L17.3946289,4.41787109 C17.0021484,4.41787109 16.6839844,4.73603516 16.6839844,5.12851562 L16.6839844,7.15175781 L47.3493164,7.15175781 L47.3493164,5.12851562 C47.3493164,4.73603516 47.0310547,4.41787109 46.6386719,4.41787109 Z" id="Path" fill="#70B5E8"></path>
                <path d="M20.4126953,4.41787109 L17.3946289,4.41787109 C17.0021484,4.41787109 16.6839844,4.73603516 16.6839844,5.12851562 L16.6839844,7.15175781 L19.7020508,7.15175781 L19.7020508,5.12851562 C19.7020508,4.73603516 20.0202148,4.41787109 20.4126953,4.41787109 Z" id="Path" fill="#52A5D8"></path>
                <path d="M23.3719727,40.8019531 L21.352832,40.8019531 C21.1677734,40.8019531 21.0163086,40.6504883 21.0163086,40.4654297 L21.0163086,38.4462891 C21.0163086,38.2612305 21.1677734,38.1097656 21.352832,38.1097656 L23.3719727,38.1097656 C23.5570313,38.1097656 23.7084961,38.2612305 23.7084961,38.4462891 L23.7084961,40.4654297 C23.7084961,40.6505859 23.5570312,40.8019531 23.3719727,40.8019531 Z" id="Path" fill="#92B620"></path>
                <g id="Group" transform="translate(27.441406, 38.085938)" fill="#70B5E8">
                    <path d="M2.36669922,2.71601563 L0.347558594,2.71601563 C0.1625,2.71601563 0.0110351562,2.56455078 0.0110351562,2.37949219 L0.0110351562,0.360351562 C0.0110351562,0.175292969 0.1625,0.023828125 0.347558594,0.023828125 L2.36669922,0.023828125 C2.55175781,0.023828125 2.70322266,0.175292969 2.70322266,0.360351562 L2.70322266,2.37949219 C2.70322266,2.56464844 2.55185547,2.71601563 2.36669922,2.71601563 Z" id="Path"></path>
                    <path d="M8.80283203,2.71601563 L6.78369141,2.71601563 C6.59863281,2.71601563 6.44716797,2.56455078 6.44716797,2.37949219 L6.44716797,0.360351562 C6.44716797,0.175292969 6.59863281,0.023828125 6.78369141,0.023828125 L8.80283203,0.023828125 C8.98789063,0.023828125 9.13935547,0.175292969 9.13935547,0.360351562 L9.13935547,2.37949219 C9.13935547,2.56464844 8.98798828,2.71601563 8.80283203,2.71601563 Z" id="Path"></path>
                </g>
                <path d="M42.6804688,40.8019531 L40.6613281,40.8019531 C40.4762695,40.8019531 40.3248047,40.6504883 40.3248047,40.4654297 L40.3248047,38.4462891 C40.3248047,38.2612305 40.4762695,38.1097656 40.6613281,38.1097656 L42.6804688,38.1097656 C42.8655273,38.1097656 43.0169922,38.2612305 43.0169922,38.4462891 L43.0169922,40.4654297 C43.0169922,40.6505859 42.8655273,40.8019531 42.6804688,40.8019531 Z" id="Path" fill="#FFB70D"></path>
                <path d="M23.3719727,30.2201172 L21.352832,30.2201172 C21.1677734,30.2201172 21.0163086,30.0686523 21.0163086,29.8835937 L21.0163086,27.8644531 C21.0163086,27.6793945 21.1677734,27.5279297 21.352832,27.5279297 L23.3719727,27.5279297 C23.5570313,27.5279297 23.7084961,27.6793945 23.7084961,27.8644531 L23.7084961,29.8835937 C23.7084961,30.06875 23.5570312,30.2201172 23.3719727,30.2201172 Z" id="Path" fill="#898989"></path>
                <path d="M29.8081055,30.2201172 L27.7889648,30.2201172 C27.6039063,30.2201172 27.4524414,30.0686523 27.4524414,29.8835937 L27.4524414,27.8644531 C27.4524414,27.6793945 27.6039063,27.5279297 27.7889648,27.5279297 L29.8081055,27.5279297 C29.9931641,27.5279297 30.1446289,27.6793945 30.1446289,27.8644531 L30.1446289,29.8835937 C30.1446289,30.06875 29.9932617,30.2201172 29.8081055,30.2201172 Z" id="Path" fill="#F94A46"></path>
                <path d="M36.2442383,30.2201172 L34.2250977,30.2201172 C34.0400391,30.2201172 33.8885742,30.0686523 33.8885742,29.8835937 L33.8885742,27.8644531 C33.8885742,27.6793945 34.0400391,27.5279297 34.2250977,27.5279297 L36.2442383,27.5279297 C36.4292969,27.5279297 36.5807617,27.6793945 36.5807617,27.8644531 L36.5807617,29.8835937 C36.5807617,30.06875 36.4293945,30.2201172 36.2442383,30.2201172 Z" id="Path" fill="#70B5E8"></path>
                <path d="M42.6804688,30.2201172 L40.6613281,30.2201172 C40.4762695,30.2201172 40.3248047,30.0686523 40.3248047,29.8835937 L40.3248047,27.8644531 C40.3248047,27.6793945 40.4762695,27.5279297 40.6613281,27.5279297 L42.6804688,27.5279297 C42.8655273,27.5279297 43.0169922,27.6793945 43.0169922,27.8644531 L43.0169922,29.8835937 C43.0169922,30.06875 42.8655273,30.2201172 42.6804688,30.2201172 Z" id="Path" fill="#FFB70D"></path>
                <path d="M23.3719727,24.7935547 L21.352832,24.7935547 C21.1677734,24.7935547 21.0163086,24.6420898 21.0163086,24.4570312 L21.0163086,22.4378906 C21.0163086,22.252832 21.1677734,22.1013672 21.352832,22.1013672 L23.3719727,22.1013672 C23.5570313,22.1013672 23.7084961,22.252832 23.7084961,22.4378906 L23.7084961,24.4570312 C23.7084961,24.6420898 23.5570312,24.7935547 23.3719727,24.7935547 Z" id="Path" fill="#EFEFEF"></path>
                <path d="M29.8081055,24.7935547 L27.7889648,24.7935547 C27.6039063,24.7935547 27.4524414,24.6420898 27.4524414,24.4570312 L27.4524414,22.4378906 C27.4524414,22.252832 27.6039063,22.1013672 27.7889648,22.1013672 L29.8081055,22.1013672 C29.9931641,22.1013672 30.1446289,22.252832 30.1446289,22.4378906 L30.1446289,24.4570312 C30.1446289,24.6420898 29.9932617,24.7935547 29.8081055,24.7935547 Z" id="Path" fill="#FFB70D"></path>
                <path d="M36.2442383,24.7935547 L34.2250977,24.7935547 C34.0400391,24.7935547 33.8885742,24.6420898 33.8885742,24.4570312 L33.8885742,22.4378906 C33.8885742,22.252832 34.0400391,22.1013672 34.2250977,22.1013672 L36.2442383,22.1013672 C36.4292969,22.1013672 36.5807617,22.252832 36.5807617,22.4378906 L36.5807617,24.4570312 C36.5807617,24.6420898 36.4293945,24.7935547 36.2442383,24.7935547 Z" id="Path" fill="#70B5E8"></path>
                <path d="M42.6804688,24.7935547 L40.6613281,24.7935547 C40.4762695,24.7935547 40.3248047,24.6420898 40.3248047,24.4570312 L40.3248047,22.4378906 C40.3248047,22.252832 40.4762695,22.1013672 40.6613281,22.1013672 L42.6804688,22.1013672 C42.8655273,22.1013672 43.0169922,22.252832 43.0169922,22.4378906 L43.0169922,24.4570312 C43.0169922,24.6420898 42.8655273,24.7935547 42.6804688,24.7935547 Z" id="Path" fill="#EFEFEF"></path>
                <path d="M23.3719727,19.3668945 L21.352832,19.3668945 C21.1677734,19.3668945 21.0163086,19.2154297 21.0163086,19.0303711 L21.0163086,17.0112305 C21.0163086,16.8261719 21.1677734,16.674707 21.352832,16.674707 L23.3719727,16.674707 C23.5570313,16.674707 23.7084961,16.8261719 23.7084961,17.0112305 L23.7084961,19.0303711 C23.7084961,19.2154297 23.5570312,19.3668945 23.3719727,19.3668945 Z" id="Path" fill="#DDA36F"></path>
                <path d="M29.8081055,19.3668945 L27.7889648,19.3668945 C27.6039063,19.3668945 27.4524414,19.2154297 27.4524414,19.0303711 L27.4524414,17.0112305 C27.4524414,16.8261719 27.6039063,16.674707 27.7889648,16.674707 L29.8081055,16.674707 C29.9931641,16.674707 30.1446289,16.8261719 30.1446289,17.0112305 L30.1446289,19.0303711 C30.1446289,19.2154297 29.9932617,19.3668945 29.8081055,19.3668945 Z" id="Path" fill="#70B5E8"></path>
                <path d="M36.2442383,19.3668945 L34.2250977,19.3668945 C34.0400391,19.3668945 33.8885742,19.2154297 33.8885742,19.0303711 L33.8885742,17.0112305 C33.8885742,16.8261719 34.0400391,16.674707 34.2250977,16.674707 L36.2442383,16.674707 C36.4292969,16.674707 36.5807617,16.8261719 36.5807617,17.0112305 L36.5807617,19.0303711 C36.5807617,19.2154297 36.4293945,19.3668945 36.2442383,19.3668945 Z" id="Path" fill="#F9D698"></path>
                <path d="M42.6804688,19.3668945 L40.6613281,19.3668945 C40.4762695,19.3668945 40.3248047,19.2154297 40.3248047,19.0303711 L40.3248047,17.0112305 C40.3248047,16.8261719 40.4762695,16.674707 40.6613281,16.674707 L42.6804688,16.674707 C42.8655273,16.674707 43.0169922,16.8261719 43.0169922,17.0112305 L43.0169922,19.0303711 C43.0169922,19.2154297 42.8655273,19.3668945 42.6804688,19.3668945 Z" id="Path" fill="#70B5E8"></path>
                <path d="M23.3719727,13.940332 L21.352832,13.940332 C21.1677734,13.940332 21.0163086,13.7888672 21.0163086,13.6038086 L21.0163086,11.584668 C21.0163086,11.3996094 21.1677734,11.2481445 21.352832,11.2481445 L23.3719727,11.2481445 C23.5570313,11.2481445 23.7084961,11.3996094 23.7084961,11.584668 L23.7084961,13.6038086 C23.7084961,13.7888672 23.5570312,13.940332 23.3719727,13.940332 Z" id="Path" fill="#92B620"></path>
                <path d="M29.8081055,13.940332 L27.7889648,13.940332 C27.6039063,13.940332 27.4524414,13.7888672 27.4524414,13.6038086 L27.4524414,11.584668 C27.4524414,11.3996094 27.6039063,11.2481445 27.7889648,11.2481445 L29.8081055,11.2481445 C29.9931641,11.2481445 30.1446289,11.3996094 30.1446289,11.584668 L30.1446289,13.6038086 C30.1446289,13.7888672 29.9932617,13.940332 29.8081055,13.940332 Z" id="Path" fill="#F94A46"></path>
                <path d="M36.2442383,13.940332 L34.2250977,13.940332 C34.0400391,13.940332 33.8885742,13.7888672 33.8885742,13.6038086 L33.8885742,11.584668 C33.8885742,11.3996094 34.0400391,11.2481445 34.2250977,11.2481445 L36.2442383,11.2481445 C36.4292969,11.2481445 36.5807617,11.3996094 36.5807617,11.584668 L36.5807617,13.6038086 C36.5807617,13.7888672 36.4293945,13.940332 36.2442383,13.940332 Z" id="Path" fill="#FFB70D"></path>
                <path d="M42.6804688,13.940332 L40.6613281,13.940332 C40.4762695,13.940332 40.3248047,13.7888672 40.3248047,13.6038086 L40.3248047,11.584668 C40.3248047,11.3996094 40.4762695,11.2481445 40.6613281,11.2481445 L42.6804688,11.2481445 C42.8655273,11.2481445 43.0169922,11.3996094 43.0169922,11.584668 L43.0169922,13.6038086 C43.0169922,13.7888672 42.8655273,13.940332 42.6804688,13.940332 Z" id="Path" fill="#EFEFEF"></path>
            </g>
        </g>
    </g>
</svg>