<?xml version="1.0" encoding="UTF-8"?>
<svg width="41px" height="50px" viewBox="0 0 41 50" version="1.1" xmlns="http://www.w3.org/2000/svg" xmlns:xlink="http://www.w3.org/1999/xlink">
    <title>FFCC4442-6E09-480C-BF54-6A74BB4EB0DE</title>
    <g id="Dev-Assets" stroke="none" stroke-width="1" fill="none" fill-rule="evenodd">
        <g id="Dev-Notes---UX-Features" transform="translate(-171.000000, -3895.000000)" fill-rule="nonzero">
            <g id="iphone" transform="translate(171.172414, 3895.000000)">
                <path d="M4.70810547,0 C2.12929687,0 0.03125,2.09804688 0.03125,4.67685547 L0.03125,45.3232422 C0.03125,47.9019531 2.12929687,50 4.70810547,50 L18.1638672,50 L18.1638672,0 L4.70810547,0 Z" id="Path" fill="#EFEFEF"></path>
                <path d="M2.81728516,45.3231445 L2.81728516,4.67685547 C2.81728516,2.09804688 4.91533203,0 7.49414062,0 L4.70810547,0 C2.12929687,0 0.03125,2.09804688 0.03125,4.67685547 L0.03125,45.3232422 C0.03125,47.9019531 2.12929687,50 4.70810547,50 L7.49414062,50 C4.91533203,50 2.81728516,47.9019531 2.81728516,45.3231445 Z" id="Path" fill="#DDDDDD"></path>
                <path d="M5.18164062,2.60898438 L5.18164062,2.60898438 C3.88125,2.60898438 2.81728516,3.67294922 2.81728516,4.97333984 L2.81728516,10.5069336 C2.81728516,11.8073242 3.88125,12.8712891 5.18164062,12.8712891 L5.18164062,12.8712891 C6.48203125,12.8712891 7.54599609,11.8073242 7.54599609,10.5069336 L7.54599609,4.97333984 C7.54599609,3.67294922 6.48203125,2.60898438 5.18164062,2.60898438 Z" id="Path" fill="#535454"></path>
                <path d="M5.18164062,10.5068359 L5.18164062,4.97333984 C5.18164062,4.10292969 5.65869141,3.3390625 6.36376953,2.92871094 C4.79326172,2.01464844 2.81728516,3.16376953 2.81728516,4.97333984 L2.81728516,10.5069336 C2.81728516,12.315625 4.7921875,13.4663086 6.36376953,12.5515625 C5.65869141,12.1411133 5.18164062,11.3772461 5.18164062,10.5068359 Z" id="Path" fill="#444443"></path>
                <path d="M35.721582,0 L18.1637695,0 C15.5849609,0 13.4869141,2.09804688 13.4869141,4.67685547 L13.4869141,45.3232422 C13.4869141,47.9020508 15.5849609,50.0000977 18.1637695,50.0000977 L35.721582,50.0000977 C38.3003906,50.0000977 40.3984375,47.9020508 40.3984375,45.3232422 L40.3984375,4.67685547 C40.3984375,2.09804688 38.3004883,0 35.721582,0 Z" id="Path" fill="#535454"></path>
                <path d="M16.0777344,45.3231445 L16.0777344,4.67685547 C16.0777344,2.09804688 18.1756836,0 20.7544922,0 L18.1637695,0 C15.5849609,0 13.4869141,2.09804688 13.4869141,4.67685547 L13.4869141,45.3232422 C13.4869141,47.9020508 15.5849609,50.0000977 18.1637695,50.0000977 L20.7544922,50.0000977 C18.1756836,50.0000977 16.0777344,47.9019531 16.0777344,45.3231445 Z" id="Path" fill="#444443"></path>
                <path d="M37.8072266,45.3231445 C37.8072266,46.475 36.8734375,47.4087891 35.721582,47.4087891 L18.1637695,47.4087891 C17.0119141,47.4087891 16.078125,46.475 16.078125,45.3231445 L16.078125,4.67685547 C16.078125,3.525 17.0119141,2.59111328 18.1637695,2.59111328 L20.3519531,2.59111328 C20.7830078,2.59111328 21.1324219,2.940625 21.1324219,3.37167969 L21.1324219,3.86660156 C21.1324219,4.53066406 21.6756836,5.07392578 22.3397461,5.07392578 L31.5455078,5.07392578 C32.2095703,5.07392578 32.752832,4.53066406 32.752832,3.86660156 L32.752832,3.15078125 C32.752832,2.84169922 33.003418,2.59111328 33.3125,2.59111328 L35.721582,2.59111328 C36.8734375,2.59111328 37.8072266,3.52490234 37.8072266,4.67675781 L37.8072266,45.3231445 L37.8072266,45.3231445 Z" id="Path" fill="#A4D9F4"></path>
                <path d="M18.5663086,45.3231445 L18.5663086,4.67685547 C18.5663086,3.5875 19.4017578,2.69443359 20.4666992,2.60058594 C20.3455078,2.58261719 20.4744141,2.59511719 18.1637695,2.59121094 C17.0119141,2.59121094 16.078125,3.525 16.078125,4.67685547 L16.078125,45.3232422 C16.078125,46.4750977 17.0119141,47.4088867 18.1637695,47.4088867 L20.6518555,47.4088867 C19.5000977,47.4088867 18.5663086,46.4750977 18.5663086,45.3231445 Z" id="Path" fill="#7CC9E8"></path>
                <g id="Group" transform="translate(4.394531, 1.757812)" fill="#666666">
                    <path d="M25.5849609,1.58798828 L21.6452148,1.58798828 C21.2285156,1.58798828 20.890625,1.25019531 20.890625,0.833398438 C20.890625,0.416601563 21.228418,0.0788085938 21.6452148,0.0788085938 L25.5849609,0.0788085938 C26.0016602,0.0788085938 26.3395508,0.416601563 26.3395508,0.833398438 C26.3394531,1.25019531 26.0016602,1.58798828 25.5849609,1.58798828 Z" id="Path"></path>
                    <path d="M18.8532227,1.46083984 C18.3129883,1.10576172 18.4439453,0.237695313 19.1238281,0.0935546875 C19.5863281,-0.00185546875 20.0263672,0.356347656 20.0263672,0.833007813 C20.0263672,1.18349609 19.7844727,1.49765625 19.4186523,1.57353516 C19.3704102,1.58251953 19.0068359,1.56474609 18.8532227,1.46083984 Z" id="Path"></path>
                    <path d="M0.368164062,3.94394531 C0.009375,3.69882812 -0.0647460938,3.23066406 0.159960937,2.89755859 C0.559277344,2.29101562 1.54130859,2.55996094 1.54130859,3.31611328 C1.54130859,3.68105469 1.27890625,3.99111328 0.934570312,4.05556641 C0.840527344,4.07529297 0.5421875,4.05830078 0.368164062,3.94394531 Z" id="Path"></path>
                </g>
                <path d="M4.76269531,8.36796875 C4.40390625,8.12285156 4.32978516,7.6546875 4.55449219,7.32158203 C4.86738281,6.83496094 5.63681641,6.87861328 5.87851563,7.45136719 C5.99277344,7.72138672 5.93613281,8.05283203 5.71552734,8.27333984 C5.53564453,8.45322266 5.07226562,8.57138672 4.76269531,8.36796875 Z" id="Path" fill="#F9D698"></path>
                <path d="M4.76269531,11.0330078 C4.26474609,10.7057617 4.33261719,9.94589844 4.89248047,9.70898437 C5.68291016,9.40009766 6.28125,10.3738281 5.71552734,10.9394531 C5.51933594,11.1356445 5.09765625,11.2619141 4.76269531,11.0330078 Z" id="Path" fill="#666666"></path>
                <path d="M20.9333008,11.1487305 L18.9141602,11.1487305 C18.7291016,11.1487305 18.5776367,10.9972656 18.5776367,10.812207 L18.5776367,8.79296875 C18.5776367,8.60791016 18.7291016,8.45644531 18.9141602,8.45644531 L20.9333008,8.45644531 C21.1183594,8.45644531 21.2698243,8.60791016 21.2698243,8.79296875 L21.2698243,10.8121094 C21.2699219,10.9972656 21.118457,11.1487305 20.9333008,11.1487305 Z" id="Path" fill="#70B5E8"></path>
                <path d="M25.6869141,11.1487305 L23.6677734,11.1487305 C23.4827148,11.1487305 23.33125,10.9972656 23.33125,10.812207 L23.33125,8.79296875 C23.33125,8.60791016 23.4827148,8.45644531 23.6677734,8.45644531 L25.6869141,8.45644531 C25.8719727,8.45644531 26.0234375,8.60791016 26.0234375,8.79296875 L26.0234375,10.8121094 C26.0234375,10.9972656 25.8719727,11.1487305 25.6869141,11.1487305 Z" id="Path" fill="#EFEFEF"></path>
                <path d="M30.4404297,11.1487305 L28.4212891,11.1487305 C28.2362305,11.1487305 28.0847656,10.9972656 28.0847656,10.812207 L28.0847656,8.79296875 C28.0847656,8.60791016 28.2362305,8.45644531 28.4212891,8.45644531 L30.4404297,8.45644531 C30.6254883,8.45644531 30.7769531,8.60791016 30.7769531,8.79296875 L30.7769531,10.8121094 C30.7769531,10.9972656 30.6254883,11.1487305 30.4404297,11.1487305 Z" id="Path" fill="#92B620"></path>
                <path d="M35.1939453,11.1487305 L33.1748047,11.1487305 C32.9897461,11.1487305 32.8382812,10.9972656 32.8382812,10.812207 L32.8382812,8.79296875 C32.8382812,8.60791016 32.9897461,8.45644531 33.1748047,8.45644531 L35.1939453,8.45644531 C35.3790039,8.45644531 35.5304687,8.60791016 35.5304687,8.79296875 L35.5304687,10.8121094 C35.5304687,10.9972656 35.3790039,11.1487305 35.1939453,11.1487305 Z" id="Path" fill="#898989"></path>
                <path d="M20.9333008,15.9491211 L18.9141602,15.9491211 C18.7291016,15.9491211 18.5776367,15.7976562 18.5776367,15.6125977 L18.5776367,13.593457 C18.5776367,13.4083984 18.7291016,13.2569336 18.9141602,13.2569336 L20.9333008,13.2569336 C21.1183594,13.2569336 21.2698243,13.4083984 21.2698243,13.593457 L21.2698243,15.6125977 C21.2699219,15.7976562 21.118457,15.9491211 20.9333008,15.9491211 Z" id="Path" fill="#92B620"></path>
                <path d="M25.6869141,15.9491211 L23.6677734,15.9491211 C23.4827148,15.9491211 23.33125,15.7976562 23.33125,15.6125977 L23.33125,13.593457 C23.33125,13.4083984 23.4827148,13.2569336 23.6677734,13.2569336 L25.6869141,13.2569336 C25.8719727,13.2569336 26.0234375,13.4083984 26.0234375,13.593457 L26.0234375,15.6125977 C26.0234375,15.7976562 25.8719727,15.9491211 25.6869141,15.9491211 Z" id="Path" fill="#898989"></path>
                <path d="M30.4404297,15.9491211 L28.4212891,15.9491211 C28.2362305,15.9491211 28.0847656,15.7976562 28.0847656,15.6125977 L28.0847656,13.593457 C28.0847656,13.4083984 28.2362305,13.2569336 28.4212891,13.2569336 L30.4404297,13.2569336 C30.6254883,13.2569336 30.7769531,13.4083984 30.7769531,13.593457 L30.7769531,15.6125977 C30.7769531,15.7976562 30.6254883,15.9491211 30.4404297,15.9491211 Z" id="Path" fill="#70B5E8"></path>
                <path d="M35.1939453,15.9491211 L33.1748047,15.9491211 C32.9897461,15.9491211 32.8382812,15.7976562 32.8382812,15.6125977 L32.8382812,13.593457 C32.8382812,13.4083984 32.9897461,13.2569336 33.1748047,13.2569336 L35.1939453,13.2569336 C35.3790039,13.2569336 35.5304687,13.4083984 35.5304687,13.593457 L35.5304687,15.6125977 C35.5304687,15.7976562 35.3790039,15.9491211 35.1939453,15.9491211 Z" id="Path" fill="#F94A46"></path>
                <path d="M20.9333008,20.8119141 L18.9141602,20.8119141 C18.7291016,20.8119141 18.5776367,20.6604492 18.5776367,20.4753906 L18.5776367,18.45625 C18.5776367,18.2711914 18.7291016,18.1197266 18.9141602,18.1197266 L20.9333008,18.1197266 C21.1183594,18.1197266 21.2698243,18.2711914 21.2698243,18.45625 L21.2698243,20.4753906 C21.2699219,20.6604492 21.118457,20.8119141 20.9333008,20.8119141 Z" id="Path" fill="#DDA36F"></path>
                <path d="M25.6869141,20.8119141 L23.6677734,20.8119141 C23.4827148,20.8119141 23.33125,20.6604492 23.33125,20.4753906 L23.33125,18.45625 C23.33125,18.2711914 23.4827148,18.1197266 23.6677734,18.1197266 L25.6869141,18.1197266 C25.8719727,18.1197266 26.0234375,18.2711914 26.0234375,18.45625 L26.0234375,20.4753906 C26.0234375,20.6604492 25.8719727,20.8119141 25.6869141,20.8119141 Z" id="Path" fill="#F9D698"></path>
                <path d="M30.4404297,20.8119141 L28.4212891,20.8119141 C28.2362305,20.8119141 28.0847656,20.6604492 28.0847656,20.4753906 L28.0847656,18.45625 C28.0847656,18.2711914 28.2362305,18.1197266 28.4212891,18.1197266 L30.4404297,18.1197266 C30.6254883,18.1197266 30.7769531,18.2711914 30.7769531,18.45625 L30.7769531,20.4753906 C30.7769531,20.6604492 30.6254883,20.8119141 30.4404297,20.8119141 Z" id="Path" fill="#898989"></path>
                <path d="M35.1939453,20.8119141 L33.1748047,20.8119141 C32.9897461,20.8119141 32.8382812,20.6604492 32.8382812,20.4753906 L32.8382812,18.45625 C32.8382812,18.2711914 32.9897461,18.1197266 33.1748047,18.1197266 L35.1939453,18.1197266 C35.3790039,18.1197266 35.5304687,18.2711914 35.5304687,18.45625 L35.5304687,20.4753906 C35.5304687,20.6604492 35.3790039,20.8119141 35.1939453,20.8119141 Z" id="Path" fill="#F9D698"></path>
                <g id="Group" transform="translate(18.554688, 22.851562)" fill="#70B5E8">
                    <path d="M2.37861328,2.76074219 L0.359472656,2.76074219 C0.174414063,2.76074219 0.0229492188,2.60927734 0.0229492188,2.42421875 L0.0229492188,0.405078125 C0.0229492188,0.220019531 0.174414063,0.0685546875 0.359472656,0.0685546875 L2.37861328,0.0685546875 C2.56367188,0.0685546875 2.71513677,0.220019531 2.71513677,0.405078125 L2.71513677,2.42421875 C2.71523437,2.60927734 2.56376953,2.76074219 2.37861328,2.76074219 Z" id="Path"></path>
                    <path d="M7.13222656,2.76074219 L5.11308594,2.76074219 C4.92802734,2.76074219 4.7765625,2.60927734 4.7765625,2.42421875 L4.7765625,0.405078125 C4.7765625,0.220019531 4.92802734,0.0685546875 5.11308594,0.0685546875 L7.13222656,0.0685546875 C7.31728516,0.0685546875 7.46875,0.220019531 7.46875,0.405078125 L7.46875,2.42421875 C7.46875,2.60927734 7.31728516,2.76074219 7.13222656,2.76074219 Z" id="Path"></path>
                </g>
                <path d="M30.4404297,25.6123047 L28.4212891,25.6123047 C28.2362305,25.6123047 28.0847656,25.4608398 28.0847656,25.2757812 L28.0847656,23.2566406 C28.0847656,23.071582 28.2362305,22.9201172 28.4212891,22.9201172 L30.4404297,22.9201172 C30.6254883,22.9201172 30.7769531,23.071582 30.7769531,23.2566406 L30.7769531,25.2757812 C30.7769531,25.4608398 30.6254883,25.6123047 30.4404297,25.6123047 Z" id="Path" fill="#F94A46"></path>
                <path d="M20.9333008,30.4126953 L18.9141602,30.4126953 C18.7291016,30.4126953 18.5776367,30.2612305 18.5776367,30.0761719 L18.5776367,28.0570313 C18.5776367,27.8719727 18.7291016,27.7205078 18.9141602,27.7205078 L20.9333008,27.7205078 C21.1183594,27.7205078 21.2698243,27.8719727 21.2698243,28.0570313 L21.2698243,30.0761719 C21.2699219,30.2612305 21.118457,30.4126953 20.9333008,30.4126953 Z" id="Path" fill="#EFEFEF"></path>
                <path d="M25.6869141,30.4126953 L23.6677734,30.4126953 C23.4827148,30.4126953 23.33125,30.2612305 23.33125,30.0761719 L23.33125,28.0570313 C23.33125,27.8719727 23.4827148,27.7205078 23.6677734,27.7205078 L25.6869141,27.7205078 C25.8719727,27.7205078 26.0234375,27.8719727 26.0234375,28.0570313 L26.0234375,30.0761719 C26.0234375,30.2612305 25.8719727,30.4126953 25.6869141,30.4126953 Z" id="Path" fill="#92B620"></path>
                <path d="M30.4404297,30.4126953 L28.4212891,30.4126953 C28.2362305,30.4126953 28.0847656,30.2612305 28.0847656,30.0761719 L28.0847656,28.0570313 C28.0847656,27.8719727 28.2362305,27.7205078 28.4212891,27.7205078 L30.4404297,27.7205078 C30.6254883,27.7205078 30.7769531,27.8719727 30.7769531,28.0570313 L30.7769531,30.0761719 C30.7769531,30.2612305 30.6254883,30.4126953 30.4404297,30.4126953 Z" id="Path" fill="#898989"></path>
                <path d="M35.1939453,25.6123047 L33.1748047,25.6123047 C32.9897461,25.6123047 32.8382812,25.4608398 32.8382812,25.2757812 L32.8382812,23.2566406 C32.8382812,23.071582 32.9897461,22.9201172 33.1748047,22.9201172 L35.1939453,22.9201172 C35.3790039,22.9201172 35.5304687,23.071582 35.5304687,23.2566406 L35.5304687,25.2757812 C35.5304687,25.4608398 35.3790039,25.6123047 35.1939453,25.6123047 Z" id="Path" fill="#FFB70D"></path>
                <path d="M20.9333984,45.2241211 L18.9142578,45.2241211 C18.7291992,45.2241211 18.5777344,45.0726563 18.5777344,44.8875977 L18.5777344,42.868457 C18.5777344,42.6833984 18.7291992,42.5319336 18.9142578,42.5319336 L20.9333984,42.5319336 C21.118457,42.5319336 21.2699219,42.6833984 21.2699219,42.868457 L21.2699219,44.8875977 C21.2699219,45.0726562 21.118457,45.2241211 20.9333984,45.2241211 Z" id="Path" fill="#92B620"></path>
                <path d="M25.6869141,45.2241211 L23.6677734,45.2241211 C23.4827148,45.2241211 23.33125,45.0726563 23.33125,44.8875977 L23.33125,42.868457 C23.33125,42.6833984 23.4827148,42.5319336 23.6677734,42.5319336 L25.6869141,42.5319336 C25.8719727,42.5319336 26.0234375,42.6833984 26.0234375,42.868457 L26.0234375,44.8875977 C26.0234375,45.0726562 25.8719727,45.2241211 25.6869141,45.2241211 Z" id="Path" fill="#70B5E8"></path>
                <path d="M30.4404297,45.2241211 L28.4212891,45.2241211 C28.2362305,45.2241211 28.0847656,45.0726563 28.0847656,44.8875977 L28.0847656,42.868457 C28.0847656,42.6833984 28.2362305,42.5319336 28.4212891,42.5319336 L30.4404297,42.5319336 C30.6254883,42.5319336 30.7769531,42.6833984 30.7769531,42.868457 L30.7769531,44.8875977 C30.7769531,45.0726562 30.6254883,45.2241211 30.4404297,45.2241211 Z" id="Path" fill="#92B620"></path>
                <path d="M35.1939453,45.2241211 L33.1748047,45.2241211 C32.9897461,45.2241211 32.8382812,45.0726563 32.8382812,44.8875977 L32.8382812,42.868457 C32.8382812,42.6833984 32.9897461,42.5319336 33.1748047,42.5319336 L35.1939453,42.5319336 C35.3790039,42.5319336 35.5304687,42.6833984 35.5304687,42.868457 L35.5304687,44.8875977 C35.5304687,45.0726562 35.3790039,45.2241211 35.1939453,45.2241211 Z" id="Path" fill="#EFEFEF"></path>
            </g>
        </g>
    </g>
</svg>