<?xml version="1.0" encoding="UTF-8"?>
<svg width="53px" height="50px" viewBox="0 0 53 50" version="1.1" xmlns="http://www.w3.org/2000/svg" xmlns:xlink="http://www.w3.org/1999/xlink">
    <title>2A210013-0D67-41F0-943C-D29B243986C1</title>
    <g id="Dev-Assets" stroke="none" stroke-width="1" fill="none" fill-rule="evenodd">
        <g id="Dev-Notes---UX-Features" transform="translate(-412.000000, -3895.000000)" fill-rule="nonzero">
            <g id="macbook-pro" transform="translate(412.266164, 3895.000000)">
                <path d="M40.8804656,19.6743927 L10.5843117,19.6743927 C10.0681174,19.6743927 9.6458502,19.2521255 9.6458502,18.7359312 L9.6458502,18.7359312 C9.6458502,18.2197368 10.0681174,17.7974696 10.5843117,17.7974696 L40.8804656,17.7974696 C41.3966599,17.7974696 41.8189271,18.2197368 41.8189271,18.7359312 L41.8189271,18.7359312 C41.8189271,19.2520243 41.3966599,19.6743927 40.8804656,19.6743927 Z" id="Path" fill="#444443"></path>
                <path d="M47.2393725,18.8950405 C46.9935223,18.8444332 4.82945344,18.858502 4.65202429,18.8950405 C4.0667004,19.0156883 3.6305668,19.536336 3.6305668,20.147166 C3.63289474,49.9140688 3.62459514,48.6662955 3.63724696,48.7890688 C3.70303644,49.4317814 4.25,49.9370445 4.90880567,49.9370445 C5.09230769,49.9371457 47.0149798,49.9571862 47.2393725,49.9109312 C47.8223684,49.7907895 48.26083,49.2720648 48.26083,48.6588057 L48.26083,20.147166 C48.26083,19.5341093 47.8225709,19.0151822 47.2393725,18.8950405 Z" id="Path" fill="#EFEFEF"></path>
                <path d="M6.29008097,48.6588057 C6.29240891,18.8919028 6.28410931,20.1395749 6.29676113,20.0169028 C6.36244939,19.3754049 6.9082996,18.8689271 7.56831984,18.8689271 C4.77773279,18.8777328 4.87560729,18.8489879 4.65202429,18.8950405 C4.0667004,19.015587 3.6305668,19.536336 3.6305668,20.147166 C3.63289474,49.9140688 3.62459514,48.6663968 3.63724696,48.7890688 C3.70303644,49.4317814 4.25,49.9370445 4.90880567,49.9370445 L7.56831984,49.9370445 C6.8645749,49.9370445 6.29008097,49.3610324 6.29008097,48.6588057 Z" id="Path" fill="#DDDDDD"></path>
                <path d="M50.3834008,0.0586032389 L1.43846154,0.0586032389 C0.517307692,0.0586032389 -0.167105263,0.91437247 0.0358299595,1.81336032 L3.63390688,17.7477733 C3.78198381,18.4034413 4.36447368,18.8690283 5.03653846,18.8690283 L10.4934211,18.8690283 C10.7061741,18.4879555 11.1128543,18.2299595 11.5803644,18.2299595 C13.0068826,18.2299595 39.1198381,18.2299595 40.2415992,18.2299595 C40.7090081,18.2299595 41.1157895,18.4879555 41.3285425,18.8690283 L46.7853239,18.8690283 C47.4574899,18.8690283 48.0398785,18.4034413 48.1879555,17.7477733 L51.7860324,1.81336032 C51.9888664,0.914878543 51.3049595,0.0586032389 50.3834008,0.0586032389 Z" id="Path" fill="#666666"></path>
                <path d="M6.57965587,17.7477733 L2.98157895,1.81325911 C2.77874494,0.914676113 3.46275304,0.0585020243 4.38421053,0.0585020243 L1.43846154,0.0585020243 C0.517307692,0.0585020243 -0.167105263,0.914271255 0.0358299595,1.81325911 L3.63390688,17.7476721 C3.78198381,18.4033401 4.36447368,18.8689271 5.03653846,18.8689271 L7.98228745,18.8689271 C7.31022267,18.8689271 6.72773279,18.4033401 6.57965587,17.7477733 Z" id="Path" fill="#535454"></path>
                <path d="M7.07216599,24.9976721 C7.07216599,33.1975709 7.07216599,27.8592105 7.07216599,36.2547571 C8.08744939,36.2547571 16.362247,36.2547571 17.3668016,36.2547571 L17.3668016,36.2547571 C24.2392713,36.2547571 39.9743927,36.2547571 44.8192308,36.2547571 C44.8192308,32.7963563 44.8192308,28.7497976 44.8192308,24.9976721 C40.8437247,24.9976721 12.0690283,24.9976721 7.07216599,24.9976721 Z" id="Path" fill="#EFEFEF"></path>
                <path d="M9.71730769,24.9976721 L9.47682186,24.9976721 L9.47682186,24.9976721 C9.11305668,24.9976721 8.67317814,24.9976721 8.27449393,24.9976721 L8.27449393,24.9976721 C7.91072874,24.9976721 7.4708502,24.9976721 7.07216599,24.9976721 L7.07216599,24.9976721 C7.07216599,33.1975709 7.07216599,27.8592105 7.07216599,36.2547571 C7.90981781,36.2547571 8.93269231,36.2547571 9.71730769,36.2547571 C9.71730769,35.2007085 9.71730769,26.279251 9.71730769,24.9976721 L9.71730769,24.9976721 Z" id="Path" fill="#DDDDDD"></path>
                <path d="M10.5036437,22.2030364 L7.07216599,22.2030364 L7.07216599,24.9976721 C12.2702429,24.9976721 39.6842105,24.9976721 44.8192308,24.9976721 L44.8192308,22.2030364 C34.4690283,22.2030364 20.859413,22.2030364 10.5036437,22.2030364 Z" id="Path" fill="#B6ADF7"></path>
                <path d="M7.07216599,22.2030364 L7.07216599,24.9976721 C8.01224696,24.9976721 8.78117409,24.9976721 9.72165992,24.9976721 L9.72165992,22.2030364 C8.78157895,22.2030364 8.01255061,22.2030364 7.07216599,22.2030364 Z" id="Path" fill="#A695F4"></path>
                <path d="M19.1811741,22.2030364 L19.1811741,24.9976721 C20.9040486,24.9976721 30.8546559,24.9976721 32.283502,24.9976721 L32.283502,22.2030364 C30.8299595,22.2030364 20.9174089,22.2030364 19.1811741,22.2030364 Z" id="Path" fill="#8970E5"></path>
                <path d="M44.8192308,21.4209514 L7.07216599,21.4209514 C6.6402834,21.4209514 6.29008097,21.7710526 6.29008097,22.2030364 C6.29008097,23.6233806 6.29008097,34.8477733 6.29008097,36.2547571 C6.29008097,36.6867409 6.64018219,37.0368421 7.07216599,37.0368421 C8.93188259,37.0368421 12.8396761,37.0368421 13.9352227,37.0368421 L17.3668016,37.0368421 C18.2719636,37.0368421 43.3938259,37.0368421 44.8192308,37.0368421 C45.2511134,37.0368421 45.6013158,36.6867409 45.6013158,36.2547571 L45.6013158,33.2947368 C45.6013158,32.3226721 45.6013158,23.1930162 45.6013158,22.2030364 C45.6013158,21.7710526 45.2512146,21.4209514 44.8192308,21.4209514 Z M38.7381579,32.5126518 L38.7381579,31.3110324 C39.7756073,31.3110324 42.2069838,31.3110324 44.0371457,31.3110324 L44.0371457,32.5126518 C42.3532389,32.5126518 40.422166,32.5126518 38.7381579,32.5126518 Z M28.4435223,32.5126518 L28.4435223,31.3110324 C29.0966599,31.3110324 29.6577935,31.3110324 30.3109312,31.3110324 L30.3109312,32.5126518 L28.4435223,32.5126518 Z M25.0119433,32.5126518 L25.0119433,31.3110324 C25.665081,31.3110324 26.2263158,31.3110324 26.8793522,31.3110324 L26.8793522,32.5126518 L25.0119433,32.5126518 Z M21.5804656,32.5126518 L21.5804656,31.3110324 C22.2336032,31.3110324 22.7948381,31.3110324 23.4478745,31.3110324 L23.4478745,32.5126518 L21.5804656,32.5126518 Z M18.1488866,32.5126518 L18.1488866,31.3110324 C18.8020243,31.3110324 19.3632591,31.3110324 20.0163968,31.3110324 L20.0163968,32.5126518 L18.1488866,32.5126518 Z M7.85425101,32.5126518 L7.85425101,31.3110324 L12.2195344,31.3110324 L13.1532389,31.3110324 L13.1532389,32.5126518 C11.4692308,32.5126518 9.53815789,32.5126518 7.85425101,32.5126518 Z M13.1531377,25.7796559 L13.1531377,26.9812753 C12.5,26.9812753 11.9387652,26.9812753 11.2857287,26.9812753 L11.2857287,25.7796559 L13.1531377,25.7796559 Z M16.5847166,25.7796559 L16.5847166,26.9812753 C15.9315789,26.9812753 15.3703441,26.9812753 14.7172065,26.9812753 L14.7172065,25.7796559 L16.5847166,25.7796559 Z M20.0162955,25.7796559 L20.0162955,26.9812753 C19.3631579,26.9812753 18.8019231,26.9812753 18.1487854,26.9812753 L18.1487854,25.7796559 L20.0162955,25.7796559 Z M23.4478745,25.7796559 L23.4478745,26.9812753 C22.7947368,26.9812753 22.233502,26.9812753 21.5804656,26.9812753 L21.5804656,25.7796559 L23.4478745,25.7796559 Z M26.8794534,25.7796559 L26.8794534,26.9812753 C26.2263158,26.9812753 25.665081,26.9812753 25.0120445,26.9812753 L25.0120445,25.7796559 L26.8794534,25.7796559 Z M30.3109312,25.7796559 L30.3109312,26.9812753 C29.6577935,26.9812753 29.0966599,26.9812753 28.4435223,26.9812753 L28.4435223,25.7796559 L30.3109312,25.7796559 Z M33.7425101,25.7796559 L33.7425101,26.9812753 C33.0893725,26.9812753 32.5281377,26.9812753 31.875,26.9812753 L31.875,25.7796559 L33.7425101,25.7796559 Z M37.1740891,25.7796559 L37.1740891,26.9812753 C36.5209514,26.9812753 35.9597166,26.9812753 35.3065789,26.9812753 L35.3065789,25.7796559 L37.1740891,25.7796559 Z M44.037247,25.7796559 L44.037247,26.9812753 C42.2078947,26.9812753 39.7854251,26.9812753 38.7382591,26.9812753 L38.7382591,25.7796559 L44.037247,25.7796559 Z M44.037247,29.7469636 L40.4540486,29.7469636 L40.4540486,28.5453441 L44.037247,28.5453441 L44.037247,29.7469636 Z M37.0223684,29.7469636 L37.0223684,28.5453441 C37.6755061,28.5453441 38.2367409,28.5453441 38.8898785,28.5453441 L38.8898785,29.7469636 C38.2367409,29.7469636 37.6755061,29.7469636 37.0223684,29.7469636 Z M33.5908907,29.7469636 L33.5908907,28.5453441 C34.2440283,28.5453441 34.8052632,28.5453441 35.4584008,28.5453441 L35.4584008,29.7469636 C34.8051619,29.7469636 34.2439271,29.7469636 33.5908907,29.7469636 Z M30.1593117,29.7469636 L30.1593117,28.5453441 C30.8124494,28.5453441 31.3736842,28.5453441 32.0268219,28.5453441 L32.0268219,29.7469636 C31.373583,29.7469636 30.8124494,29.7469636 30.1593117,29.7469636 Z M26.7277328,29.7469636 L26.7277328,28.5453441 C27.3808704,28.5453441 27.942004,28.5453441 28.5951417,28.5453441 L28.5951417,29.7469636 C27.9421053,29.7469636 27.3808704,29.7469636 26.7277328,29.7469636 Z M23.2961538,29.7469636 L23.2961538,28.5453441 C23.9492915,28.5453441 24.5105263,28.5453441 25.163664,28.5453441 L25.163664,29.7469636 C24.5105263,29.7469636 23.9492915,29.7469636 23.2961538,29.7469636 Z M19.8646761,29.7469636 L19.8646761,28.5453441 C20.5178138,28.5453441 21.0790486,28.5453441 21.732085,28.5453441 L21.732085,29.7469636 C21.0789474,29.7469636 20.5178138,29.7469636 19.8646761,29.7469636 Z M16.4330972,29.7469636 L16.4330972,28.5453441 C17.0862348,28.5453441 17.6474696,28.5453441 18.3006073,28.5453441 L18.3006073,29.7469636 C17.6473684,29.7469636 17.0862348,29.7469636 16.4330972,29.7469636 Z M13.9352227,29.7469636 L13.0015182,29.7469636 L13.0015182,28.5453441 C13.6546559,28.5453441 14.2158907,28.5453441 14.8690283,28.5453441 L14.8690283,29.7469636 L13.9352227,29.7469636 Z M7.85425101,29.7469636 L7.85425101,28.5453441 C8.71629555,28.5453441 10.5865385,28.5453441 11.4374494,28.5453441 L11.4374494,29.7469636 L7.85425101,29.7469636 Z M9.72165992,26.9812753 L7.85425101,26.9812753 L7.85425101,25.7796559 L9.72165992,25.7796559 L9.72165992,26.9812753 Z M14.7173077,31.3110324 C15.3704453,31.3110324 15.9316802,31.3110324 16.5848178,31.3110324 L16.5848178,32.5126518 L14.7173077,32.5126518 L14.7173077,31.3110324 Z M31.8751012,31.3110324 C32.5282389,31.3110324 33.0894737,31.3110324 33.7426113,31.3110324 L33.7426113,32.5126518 L31.8751012,32.5126518 L31.8751012,31.3110324 Z M35.3065789,31.3110324 C35.9597166,31.3110324 36.5209514,31.3110324 37.1740891,31.3110324 L37.1740891,32.5126518 L35.3065789,32.5126518 L35.3065789,31.3110324 Z M7.85425101,22.9850202 L44.037247,22.9850202 L44.037247,24.2154858 C40.2117409,24.2154858 12.2423077,24.2154858 7.85425101,24.2154858 C7.85425101,24.2154858 7.85425101,22.9850202 7.85425101,22.9850202 Z M7.85425101,34.0767206 L9.72165992,34.0767206 L9.72165992,35.4725709 L7.85425101,35.4725709 L7.85425101,34.0767206 Z M11.2857287,34.0767206 L13.1531377,34.0767206 L13.1531377,35.4725709 L11.2857287,35.4725709 C11.2857287,35.4725709 11.2857287,34.0767206 11.2857287,34.0767206 Z M14.7173077,34.0767206 L16.5848178,34.0767206 L16.5848178,35.4725709 L14.7173077,35.4725709 L14.7173077,34.0767206 Z M18.1488866,34.0767206 C21.2850202,34.0767206 30.1713563,34.0767206 33.7425101,34.0767206 L33.7425101,35.4725709 L18.1488866,35.4725709 L18.1488866,34.0767206 Z M35.3065789,34.0767206 L37.1740891,34.0767206 L37.1740891,35.4725709 L35.3065789,35.4725709 L35.3065789,34.0767206 Z M38.7381579,34.0767206 L40.6055668,34.0767206 L40.6055668,35.4725709 L38.7381579,35.4725709 L38.7381579,34.0767206 Z M44.037247,35.4726721 L42.1697368,35.4726721 L42.1697368,34.0768219 L44.037247,34.0768219 L44.037247,35.4726721 Z" id="Shape" fill="#CCCCCC"></path>
                <path d="M9.71730769,36.2546559 L9.71730769,35.4725709 L7.85425101,35.4725709 L7.85425101,34.0767206 L9.71730769,34.0767206 C9.71730769,33.5296559 9.71730769,33.0596154 9.71730769,32.5126518 L7.85425101,32.5126518 L7.85425101,31.3110324 L9.71730769,31.3110324 C9.71730769,30.7639676 9.71730769,30.2939271 9.71730769,29.7469636 L7.85425101,29.7469636 L7.85425101,28.5453441 L9.71730769,28.5453441 C9.71730769,27.9982794 9.71730769,27.5282389 9.71730769,26.9812753 L7.85425101,26.9812753 L7.85425101,25.7796559 L9.71730769,25.7796559 C9.71730769,25.2325911 9.71730769,24.7625506 9.71730769,24.215587 L7.85425101,24.215587 L7.85425101,22.9851215 L9.71730769,22.9851215 L9.71730769,22.2030364 C9.71730769,21.7710526 10.0674089,21.4209514 10.4993927,21.4209514 L7.07216599,21.4209514 C6.6402834,21.4209514 6.29008097,21.7710526 6.29008097,22.2030364 C6.29008097,23.6233806 6.29008097,34.8477733 6.29008097,36.2547571 C6.29008097,36.6867409 6.64018219,37.0368421 7.07216599,37.0368421 L10.4993927,37.0368421 C10.0674089,37.0368421 9.71730769,36.6866397 9.71730769,36.2546559 Z" id="Path" fill="#BABABA"></path>
                <path d="M17.1841093,38.8210526 L15.9137652,38.8210526 C15.5983806,38.8210526 15.3427126,39.0767206 15.3427126,39.3921053 L15.3427126,49.9369433 C16.2312753,49.9369433 34.9807692,49.9369433 36.4791498,49.9369433 L36.4791498,39.3243927 C36.4791498,39.0464575 36.2537449,38.8210526 35.9758097,38.8210526 C35.3095142,38.8210526 17.9096154,38.8210526 17.1841093,38.8210526 Z" id="Path" fill="#CCCCCC"></path>
                <path d="M19.042004,38.8210526 L17.1841093,38.8210526 L15.9137652,38.8210526 C15.5983806,38.8210526 15.3427126,39.0767206 15.3427126,39.3921053 L15.3427126,49.9369433 C16.4238866,49.9369433 17.3199393,49.9369433 18.4709514,49.9369433 L18.4709514,39.3921053 C18.4709514,39.0767206 18.7266194,38.8210526 19.042004,38.8210526 Z" id="Path" fill="#BABABA"></path>
                <path d="M45.2044534,15.9930162 L6.61730769,15.9930162 C6.36508097,15.9930162 6.1465587,15.8183198 6.0909919,15.5722672 L3.38603239,3.59291498 C3.30981781,3.25546559 3.56639676,2.93451417 3.91234818,2.93451417 L47.9095142,2.93451417 C48.2554656,2.93451417 48.5120445,3.25546559 48.43583,3.59291498 L45.7307692,15.5723684 C45.6752024,15.8183198 45.4566802,15.9930162 45.2044534,15.9930162 Z" id="Path" fill="#A4D9F4"></path>
                <path d="M9.21923077,15.5723684 L6.51427126,3.59291498 C6.43805668,3.25546559 6.69463563,2.93451417 7.04058704,2.93451417 L3.91234818,2.93451417 C3.56639676,2.93451417 3.30981781,3.25546559 3.38603239,3.59291498 L6.09109312,15.5723684 C6.14665992,15.8183198 6.36518219,15.9931174 6.61740891,15.9931174 L9.74564777,15.9931174 C9.49342105,15.9931174 9.27479757,15.8183198 9.21923077,15.5723684 Z" id="Path" fill="#7CC9E8"></path>
                <path d="M48.43583,3.59291498 C48.5120445,3.2555668 48.2555668,2.9347166 47.9097166,2.93451417 L3.91214575,2.93451417 C3.56629555,2.93461538 3.30991903,3.2555668 3.38603239,3.59291498 L3.90536437,5.89281377 L47.916498,5.89281377 L48.43583,3.59291498 Z" id="Path" fill="#70B5E8"></path>
                <path d="M7.03360324,5.89281377 L6.51427126,3.59291498 C6.43805668,3.2555668 6.69463563,2.93461538 7.04048583,2.93451417 C3.63724696,2.93532389 3.85394737,2.92004049 3.72398785,2.96842105 C3.48066802,3.0590081 3.32449393,3.32024291 3.38603239,3.59291498 C3.45961538,3.9187247 3.83198381,5.56811741 3.90536437,5.89281377 L7.03360324,5.89281377 Z" id="Path" fill="#52A5D8"></path>
            </g>
        </g>
    </g>
</svg>