<?xml version="1.0" encoding="UTF-8"?>
<svg width="50px" height="50px" viewBox="0 0 50 50" version="1.1" xmlns="http://www.w3.org/2000/svg" xmlns:xlink="http://www.w3.org/1999/xlink">
    <title>7D0688B8-AE3A-4852-B217-755EA736252F</title>
    <defs>
        <path d="M47.05325,30.144 C45.74575,29.679 44.32075,30.3615 43.86325,31.6665 C41.04325,39.6415 33.46075,44.999 25.00075,44.999 C13.97325,44.999 5.00075,36.029 5.00075,24.999 C5.00075,16.539 10.35825,8.9565 18.33325,6.1365 C19.63575,5.679 20.31825,4.2515 19.85825,2.949 C19.39825,1.649 17.97075,0.964 16.66825,1.4265 C6.69825,4.949 0.000749999999,14.4215 0.000749999999,24.999 C0.000749999999,38.784 11.21575,49.999 25.00075,49.999 C35.57825,49.999 45.05075,43.304 48.57575,33.3315 C49.03575,32.0315 48.35575,30.604 47.05325,30.144 M30,20 L30,5.1775 C37.6525,6.2775 43.7225,12.345 44.8225,20 L30,20 Z M27.5,0 C26.12,0 25,1.1175 25,2.5 L25,22.5 C25,23.8825 26.12,25 27.5,25 L47.5,25 C48.88,25 50,23.8825 50,22.5 C50,10.0925 39.905,0 27.5,0 L27.5,0 Z" id="path-1"></path>
    </defs>
    <g id="Pages" stroke="none" stroke-width="1" fill="none" fill-rule="evenodd">
        <g id="M---Careers" transform="translate(-20.000000, -2228.000000)">
            <g id="Section-2:-Our-Perks" transform="translate(15.000000, 883.000000)">
                <g id="Column-5" transform="translate(0.000000, 1340.000000)">
                    <g id="27)-Icon/pie-chart" transform="translate(5.000000, 5.000000)">
                        <mask id="mask-2" fill="white">
                            <use xlink:href="#path-1"></use>
                        </mask>
                        <use id="🎨-Icon-Сolor" fill="#3333FF" xlink:href="#path-1"></use>
                    </g>
                </g>
            </g>
        </g>
    </g>
</svg>