<?xml version="1.0" encoding="UTF-8"?>
<svg width="46px" height="50px" viewBox="0 0 46 50" version="1.1" xmlns="http://www.w3.org/2000/svg" xmlns:xlink="http://www.w3.org/1999/xlink">
    <title>7B4A8A50-7E89-4D55-860A-7194CB2AD4E1</title>
    <defs>
        <path d="M40.5,42.5 C40.5,43.88 39.3775,45 38,45 L8,45 C6.6225,45 5.5,43.88 5.5,42.5 L5.5,15 C5.5,13.62 6.6225,12.5 8,12.5 L10.5,12.5 C10.5,19.3925 16.1075,25 23,25 C29.8925,25 35.5,19.3925 35.5,12.5 L38,12.5 C39.3775,12.5 40.5,13.62 40.5,15 L40.5,42.5 Z M20.5,5.43 L20.5,10 C20.5,11.3825 21.62,12.5 23,12.5 C24.38,12.5 25.5,11.3825 25.5,10 L25.5,5.43 C27.8075,6.245 29.6275,8.1675 30.2675,10.6775 C30.425,11.23 30.5,11.8275 30.5,12.5 C30.5,16.635 27.135,20 23,20 C18.865,20 15.5,16.635 15.5,12.5 C15.5,11.845 15.5775,11.2625 15.7275,10.72 C15.735,10.69 15.7375,10.6625 15.745,10.6325 L15.755,10.595 C16.385,8.14 18.2,6.24 20.5,5.43 L20.5,5.43 Z M38,7.5 L34.445,7.5 C32.4975,3.0025 28.0425,0 23,0 C17.9425,0 13.4775,3.0225 11.55,7.5 L8,7.5 C3.865,7.5 0.5,10.865 0.5,15 L0.5,42.5 C0.5,46.635 3.865,50 8,50 L38,50 C42.135,50 45.5,46.635 45.5,42.5 L45.5,15 C45.5,10.865 42.135,7.5 38,7.5 L38,7.5 Z" id="path-1"></path>
    </defs>
    <g id="Pages" stroke="none" stroke-width="1" fill="none" fill-rule="evenodd">
        <g id="M---Careers" transform="translate(-22.000000, -1632.000000)">
            <g id="Section-2:-Our-Perks" transform="translate(15.000000, 883.000000)">
                <g id="Column-4" transform="translate(0.000000, 744.000000)">
                    <g id="27)-Icon/weight" transform="translate(7.000000, 5.000000)">
                        <mask id="mask-2" fill="white">
                            <use xlink:href="#path-1"></use>
                        </mask>
                        <use id="🎨-Icon-Сolor" fill="#3333FF" xlink:href="#path-1"></use>
                    </g>
                </g>
            </g>
        </g>
    </g>
</svg>